<svg xmlns="http://www.w3.org/2000/svg" viewBox="0 0 220 130" role="img" aria-labelledby="lorenz-title lorenz-desc">
  <title id="lorenz-title">Lorenz policy flow</title>
  <desc id="lorenz-desc">Dotted Lorenz attractor sketch for reinforcement learning.</desc>
  <defs>
    <linearGradient id="lorenz-grad" x1="18" y1="12" x2="202" y2="118" gradientUnits="userSpaceOnUse">
      <stop offset="0" stop-color="#d71c2a"/>
      <stop offset="0.56" stop-color="#1456c6"/>
      <stop offset="1" stop-color="#cd9e37"/>
    </linearGradient>
    <radialGradient id="lorenz-wash" cx="50%" cy="42%" r="70%">
      <stop offset="0" stop-color="rgb(246, 205, 208)" stop-opacity="0.8"/>
      <stop offset="1" stop-color="#ffffff" stop-opacity="0"/>
    </radialGradient>
  </defs>
  <rect width="220" height="130" rx="12" fill="url(#lorenz-wash)"/>
  <g transform="translate(0 0)">
    <path d="M78.0 67.1 L54.8 88.4 L62.2 65.0 L79.8 70.4 L45.0 89.5 L73.9 59.0 L76.1 78.4 L44.8 76.3 L86.4 58.9 L53.7 94.4 L73.4 52.1 L88.0 73.1 L48.1 62.6 L101.6 57.1 L44.2 57.9 L115.1 54.5 L190.6 73.7 L109.5 45.8 L118.3 17.1 L136.5 100.8 L51.3 73.2 L81.1 64.0 L55.1 90.4 L63.9 61.3 L83.8 69.7 L39.3 89.5 L83.1 54.5 L70.0 86.6 L63.1 54.9 L94.6 65.3 L38.2 70.9 L105.6 52.7 L80.4 29.8 L113.0 69.2 L179.1 68.8 L129.7 48.5 L155.7 87.9 L140.6 37.3 L125.3 73.5 L140.4 28.4 L113.2 72.3 L54.5 54.0 L106.3 58.8 L131.9 21.8 L110.8 79.0 L40.5 78.0 L91.7 55.5 L45.4 99.9 L90.4 44.0 L73.5 90.0 L110.2 32.4 L179.4 29.1 L84.5 62.8 L60.3 88.9 L60.1 62.6 L86.0 66.9 L38.8 92.6 L83.6 52.7 L72.5 85.8 L66.4 51.3 L96.6 66.3 L56.7 50.3 L109.3 59.2 L171.0 37.4 L104.3 57.6 L28.3 81.9 L111.9 48.5 L187.7 48.5 L96.6 54.1 L40.5 102.4 L98.9 41.7 L40.4 108.5 L127.2 37.8 L141.2 88.4 L106.6 32.6 L28.3 63.8 L134.1 53.6 L153.1 81.4 L159.9 49.2 L129.9 61.4 L178.1 79.8 L133.2 44.5 L143.0 83.1 L148.0 36.3 L119.6 67.6 L141.0 26.3 L109.9 71.7 L41.7 68.5 L102.8 54.4 L43.2 57.7 L117.3 54.2 L187.1 82.2 L114.6 42.9 L198.5 77.3 L92.3 49.5 L60.3 95.9 L95.7 38.3 L65.0 98.0 L135.6 35.1 L125.9 77.6 L111.4 28.2 L206.0 64.9 L77.3 59.8 L72.9 81.0 L47.9 72.7 L86.6 60.6 L49.6 95.3 L75.3 52.1 L85.6 75.2 L50.1 61.6 L100.3 58.2 L37.8 66.2 L113.4 52.4 L191.7 63.0 L102.8 49.3 L21.4 97.2 L118.7 44.4 L178.9 95.8 L103.1 40.3 L18.1 107.0 L130.5 43.6 L144.3 85.2 L139.0 33.7 L121.4 74.1 L104.4 28.3 L14.0 115.3 L145.0 48.3 L137.5 72.0 L175.4 62.2 L130.2 51.7 L160.9 87.4 L142.7 39.8 L127.6 72.3 L160.9 37.2 L112.9 60.5 L112.9 22.5 L197.9 105.2 L66.7 62.4 L79.9 72.5 L42.1 87.1 L79.4 57.6 L70.8 83.9 L53.3 65.2" fill="none" stroke="url(#lorenz-grad)" stroke-width="1.25" stroke-linecap="round" opacity="0.24"/>
  </g>
  <g filter="drop-shadow(0 2px 3px rgba(20, 31, 52, 0.18))">
    <circle cx="118.3" cy="17.1" r="2.5" fill="#cd9e37" opacity="0.5"/>
    <circle cx="127.1" cy="16.9" r="1.9" fill="rgb(170, 41, 78)" opacity="0.5"/>
    <circle cx="80.2" cy="26.9" r="1.9" fill="rgb(168, 42, 79)" opacity="0.5"/>
    <circle cx="112.9" cy="22.5" r="2.0" fill="rgb(166, 42, 81)" opacity="0.5"/>
    <circle cx="80.3" cy="33.9" r="2.0" fill="rgb(159, 45, 87)" opacity="0.5"/>
    <circle cx="103.9" cy="33.4" r="2.1" fill="rgb(154, 46, 91)" opacity="0.5"/>
    <circle cx="140.4" cy="28.4" r="2.1" fill="rgb(153, 46, 92)" opacity="0.6"/>
    <circle cx="95.5" cy="36.4" r="2.1" fill="rgb(152, 47, 92)" opacity="0.6"/>
    <circle cx="130.8" cy="32.2" r="2.1" fill="rgb(150, 47, 94)" opacity="0.6"/>
    <circle cx="95.1" cy="38.2" r="2.1" fill="rgb(150, 47, 94)" opacity="0.6"/>
    <circle cx="95.7" cy="38.3" r="2.2" fill="rgb(150, 47, 94)" opacity="0.6"/>
    <circle cx="64.0" cy="44.0" r="2.2" fill="rgb(149, 48, 95)" opacity="0.6"/>
    <circle cx="87.3" cy="40.8" r="2.2" fill="rgb(148, 48, 95)" opacity="0.6"/>
    <circle cx="127.2" cy="37.8" r="2.8" fill="rgb(144, 49, 99)" opacity="0.6"/>
    <circle cx="179.4" cy="29.1" r="2.2" fill="rgb(143, 49, 99)" opacity="0.6"/>
    <circle cx="90.4" cy="44.0" r="2.2" fill="rgb(143, 49, 99)" opacity="0.6"/>
    <circle cx="95.5" cy="45.9" r="2.3" fill="rgb(140, 50, 102)" opacity="0.6"/>
    <circle cx="130.5" cy="43.6" r="2.3" fill="#cd9e37" opacity="0.6"/>
    <circle cx="171.0" cy="37.4" r="2.3" fill="rgb(135, 52, 106)" opacity="0.6"/>
    <circle cx="61.5" cy="55.2" r="2.3" fill="rgb(135, 52, 106)" opacity="0.6"/>
    <circle cx="133.2" cy="44.5" r="2.3" fill="rgb(134, 52, 106)" opacity="0.6"/>
    <circle cx="102.8" cy="49.3" r="2.3" fill="rgb(134, 52, 107)" opacity="0.6"/>
    <circle cx="111.9" cy="48.5" r="2.3" fill="rgb(133, 52, 108)" opacity="0.6"/>
    <circle cx="83.6" cy="52.7" r="2.3" fill="rgb(133, 52, 108)" opacity="0.6"/>
    <circle cx="147.1" cy="44.2" r="2.3" fill="rgb(132, 53, 108)" opacity="0.6"/>
    <circle cx="71.5" cy="55.8" r="2.4" fill="rgb(131, 53, 109)" opacity="0.6"/>
    <circle cx="28.3" cy="63.8" r="2.9" fill="rgb(131, 53, 109)" opacity="0.6"/>
    <circle cx="49.6" cy="61.3" r="2.4" fill="rgb(129, 54, 111)" opacity="0.6"/>
    <circle cx="109.6" cy="52.6" r="2.4" fill="rgb(129, 54, 111)" opacity="0.6"/>
    <circle cx="137.6" cy="48.5" r="2.4" fill="rgb(129, 54, 111)" opacity="0.6"/>
    <circle cx="122.0" cy="51.3" r="2.4" fill="rgb(128, 54, 111)" opacity="0.6"/>
    <circle cx="119.2" cy="52.1" r="2.4" fill="rgb(128, 54, 112)" opacity="0.6"/>
    <circle cx="107.3" cy="52.9" r="2.4" fill="rgb(128, 54, 112)" opacity="0.6"/>
    <circle cx="48.1" cy="62.6" r="2.4" fill="rgb(128, 54, 112)" opacity="0.6"/>
    <circle cx="93.6" cy="55.3" r="2.4" fill="#cd9e37" opacity="0.7"/>
    <circle cx="145.0" cy="48.3" r="2.4" fill="rgb(127, 54, 112)" opacity="0.7"/>
    <circle cx="130.2" cy="51.7" r="2.4" fill="rgb(126, 54, 113)" opacity="0.7"/>
    <circle cx="37.8" cy="66.2" r="2.4" fill="rgb(125, 55, 114)" opacity="0.7"/>
    <circle cx="77.3" cy="59.8" r="2.4" fill="rgb(125, 55, 114)" opacity="0.7"/>
    <circle cx="81.6" cy="58.9" r="3.0" fill="rgb(125, 55, 114)" opacity="0.7"/>
    <circle cx="60.1" cy="62.6" r="2.4" fill="rgb(125, 55, 114)" opacity="0.7"/>
    <circle cx="117.3" cy="54.2" r="2.4" fill="rgb(124, 55, 115)" opacity="0.7"/>
    <circle cx="115.1" cy="54.5" r="2.4" fill="rgb(124, 55, 115)" opacity="0.7"/>
    <circle cx="159.9" cy="49.2" r="2.4" fill="rgb(123, 55, 115)" opacity="0.7"/>
    <circle cx="114.8" cy="55.3" r="2.4" fill="rgb(123, 55, 115)" opacity="0.7"/>
    <circle cx="86.6" cy="60.6" r="2.5" fill="rgb(121, 56, 117)" opacity="0.7"/>
    <circle cx="41.7" cy="68.5" r="2.5" fill="rgb(121, 56, 117)" opacity="0.7"/>
    <circle cx="106.3" cy="58.8" r="2.5" fill="rgb(120, 56, 118)" opacity="0.7"/>
    <circle cx="125.1" cy="58.8" r="2.5" fill="rgb(119, 57, 119)" opacity="0.7"/>
    <circle cx="38.2" cy="70.9" r="2.5" fill="rgb(119, 57, 119)" opacity="0.7"/>
    <circle cx="82.0" cy="64.4" r="2.5" fill="rgb(118, 57, 119)" opacity="0.7"/>
    <circle cx="81.1" cy="64.0" r="2.5" fill="#cd9e37" opacity="0.7"/>
    <circle cx="51.8" cy="70.7" r="3.1" fill="rgb(115, 58, 122)" opacity="0.7"/>
    <circle cx="83.2" cy="66.0" r="2.5" fill="rgb(114, 58, 122)" opacity="0.7"/>
    <circle cx="78.0" cy="67.1" r="2.5" fill="rgb(114, 58, 123)" opacity="0.7"/>
    <circle cx="89.3" cy="65.3" r="2.5" fill="rgb(114, 58, 123)" opacity="0.7"/>
    <circle cx="168.4" cy="57.1" r="2.6" fill="rgb(112, 59, 124)" opacity="0.7"/>
    <circle cx="79.2" cy="68.3" r="2.6" fill="rgb(112, 59, 124)" opacity="0.7"/>
    <circle cx="96.6" cy="66.3" r="2.6" fill="rgb(111, 59, 125)" opacity="0.7"/>
    <circle cx="119.6" cy="67.6" r="2.6" fill="rgb(109, 59, 127)" opacity="0.7"/>
    <circle cx="83.8" cy="69.7" r="2.6" fill="rgb(109, 60, 127)" opacity="0.7"/>
    <circle cx="79.8" cy="70.4" r="2.6" fill="rgb(109, 60, 127)" opacity="0.7"/>
    <circle cx="40.5" cy="78.0" r="2.6" fill="rgb(108, 60, 128)" opacity="0.7"/>
    <circle cx="94.4" cy="73.2" r="2.6" fill="rgb(107, 60, 129)" opacity="0.7"/>
    <circle cx="79.9" cy="72.5" r="2.6" fill="rgb(106, 60, 129)" opacity="0.7"/>
    <circle cx="79.2" cy="73.6" r="3.2" fill="rgb(104, 61, 131)" opacity="0.7"/>
    <circle cx="122.8" cy="72.0" r="2.7" fill="rgb(104, 61, 131)" opacity="0.7"/>
    <circle cx="113.0" cy="69.2" r="2.7" fill="rgb(104, 61, 131)" opacity="0.7"/>
    <circle cx="127.6" cy="72.3" r="2.7" fill="#cd9e37" opacity="0.7"/>
    <circle cx="121.4" cy="74.1" r="2.7" fill="rgb(102, 62, 133)" opacity="0.7"/>
    <circle cx="85.6" cy="75.2" r="2.7" fill="rgb(100, 62, 134)" opacity="0.8"/>
    <circle cx="80.9" cy="76.0" r="2.7" fill="rgb(100, 62, 134)" opacity="0.8"/>
    <circle cx="77.5" cy="77.1" r="2.7" fill="rgb(100, 62, 134)" opacity="0.8"/>
    <circle cx="98.2" cy="74.5" r="2.7" fill="rgb(98, 63, 135)" opacity="0.8"/>
    <circle cx="124.8" cy="76.8" r="2.7" fill="rgb(98, 63, 135)" opacity="0.8"/>
    <circle cx="76.1" cy="78.4" r="2.7" fill="rgb(98, 63, 136)" opacity="0.8"/>
    <circle cx="125.9" cy="77.6" r="2.7" fill="rgb(97, 63, 136)" opacity="0.8"/>
    <circle cx="137.9" cy="76.4" r="2.7" fill="rgb(96, 63, 137)" opacity="0.8"/>
    <circle cx="70.8" cy="83.9" r="3.4" fill="rgb(91, 65, 141)" opacity="0.8"/>
    <circle cx="68.6" cy="85.5" r="2.8" fill="rgb(89, 65, 143)" opacity="0.8"/>
    <circle cx="70.0" cy="86.6" r="2.8" fill="rgb(87, 66, 144)" opacity="0.8"/>
    <circle cx="35.0" cy="95.0" r="2.9" fill="rgb(84, 67, 146)" opacity="0.8"/>
    <circle cx="187.1" cy="78.6" r="2.9" fill="rgb(83, 67, 147)" opacity="0.8"/>
    <circle cx="131.7" cy="89.2" r="2.9" fill="rgb(83, 67, 147)" opacity="0.8"/>
    <circle cx="198.5" cy="77.3" r="2.9" fill="rgb(82, 67, 148)" opacity="0.8"/>
    <circle cx="203.2" cy="76.5" r="2.9" fill="#cd9e37" opacity="0.8"/>
    <circle cx="56.7" cy="93.1" r="2.9" fill="rgb(81, 68, 149)" opacity="0.8"/>
    <circle cx="155.7" cy="87.9" r="2.9" fill="rgb(80, 68, 150)" opacity="0.8"/>
    <circle cx="53.7" cy="94.4" r="2.9" fill="rgb(80, 68, 150)" opacity="0.8"/>
    <circle cx="59.7" cy="95.8" r="3.0" fill="rgb(76, 69, 153)" opacity="0.8"/>
    <circle cx="43.6" cy="99.7" r="3.0" fill="rgb(75, 70, 154)" opacity="0.9"/>
    <circle cx="40.5" cy="102.4" r="3.6" fill="rgb(71, 71, 157)" opacity="0.9"/>
    <circle cx="165.6" cy="95.5" r="3.0" fill="rgb(69, 71, 158)" opacity="0.9"/>
    <circle cx="193.9" cy="91.8" r="3.1" fill="rgb(67, 72, 160)" opacity="0.9"/>
    <circle cx="178.9" cy="95.8" r="3.1" fill="rgb(66, 72, 161)" opacity="0.9"/>
    <circle cx="51.0" cy="103.7" r="3.1" fill="rgb(66, 72, 161)" opacity="0.9"/>
  </g>
</svg>
