<svg xmlns="http://www.w3.org/2000/svg" viewBox="0 0 220 130" role="img" aria-labelledby="communication-scroll-title communication-scroll-desc">
  <title id="communication-scroll-title">Emergent communication double-scroll attractor</title>
  <desc id="communication-scroll-desc">A double-scroll attractor representing two emergent communication conventions.</desc>
  <defs>
    <linearGradient id="communication-scroll-grad" x1="12" y1="14" x2="208" y2="118" gradientUnits="userSpaceOnUse">
      <stop offset="0" stop-color="#b85c30"/>
      <stop offset="0.55" stop-color="#1456c6"/>
      <stop offset="1" stop-color="#d71c2a"/>
    </linearGradient>
    <radialGradient id="communication-scroll-wash" cx="52%" cy="42%" r="74%">
      <stop offset="0" stop-color="rgb(241, 222, 214)" stop-opacity="0.74"/>
      <stop offset="1" stop-color="#ffffff" stop-opacity="0"/>
    </radialGradient>
  </defs>
  <rect width="220" height="130" rx="12" fill="url(#communication-scroll-wash)"/>
  <g><path d="M135.5 53.1 L133.9 22.1 L107.4 82.1 L117.3 59.9 L134.3 34.5 L127.4 55.0 L137.7 36.8 L127.2 44.4 L133.9 54.8 L135.2 22.8 L114.5 75.4 L140.1 37.6 L125.8 35.8 L93.3 93.1 L92.5 77.6 L83.6 96.3 L93.7 84.4 L85.6 82.2 L87.8 103.7 L99.0 61.7 L77.3 111.5 L103.9 73.3 L129.3 39.4 L130.0 55.2 L136.7 30.7 L125.4 56.6 L139.0 38.5 L127.4 38.7 L124.0 69.7 L141.9 14.0 L108.6 74.1 L91.7 91.4 L89.4 76.4 L84.3 104.8 L96.9 68.8 L79.0 101.4 L97.3 86.3 L113.6 51.2 L86.0 92.5 L93.0 89.5 L87.7 75.2 L84.5 110.5 L106.7 57.1 L82.9 88.8 L92.5 101.6 L123.4 41.7 L128.6 53.9 L136.6 35.6 L127.2 48.8 L135.5 47.6 L131.9 31.2 L126.0 67.0 L142.1 18.8 L115.2 65.0 L98.7 81.2 L86.7 80.8 L87.1 104.0 L97.9 63.2 L77.6 110.5 L103.0 74.3 L127.7 42.8 L131.4 52.3 L135.1 32.3 L126.6 57.5 L138.9 34.5 L125.9 45.7 L133.7 57.4 L136.0 18.5 L105.6 82.7 L95.2 75.6 L82.7 95.6 L93.8 87.7 L86.8 76.4 L85.3 110.7 L109.1 54.3 L87.2 83.4 L90.0 103.9 L111.0 51.2 L83.9 91.8 L93.5 95.2 L105.9 55.3 L78.2 110.5 L103.3 73.5 L127.4 43.5 L131.8 51.7 L134.8 32.5 L126.8 57.9 L139.0 33.3 L125.5 47.5 L134.7 55.3 L134.9 19.9 L105.2 83.6 L97.6 73.2 L81.9 96.1 L94.3 88.7 L89.0 70.8 L82.8 116.0 L115.3 50.4 L127.6 49.7 L135.2 44.0 L130.7 38.0 L130.3 57.6 L137.5 26.1 L122.7 62.6 L141.4 34.9 L125.1 39.1 L99.4 87.7 L91.3 74.6 L83.2 104.5 L96.9 71.8 L80.0 95.9 L94.9 93.3 L113.6 49.9 L86.2 91.0 L92.6 92.2 L89.4 71.0 L82.5 114.2 L110.2 55.6 L109.6 64.4 L87.3 92.2 L91.6 85.1 L86.6 85.6 L88.7 95.7 L91.5 74.5 L82.8 103.4 L96.6 74.5 L81.0 92.1 L93.1 97.3 L111.8 50.7 L83.1 95.5 L94.9 90.1" fill="none" stroke="url(#communication-scroll-grad)" stroke-width="1.2" stroke-linecap="round" opacity="0.2"/></g>
  <g style="filter: drop-shadow(0 2px 3px rgba(20, 31, 52, 0.2));">
    <circle cx="141.9" cy="14.0" r="2.5" fill="#d71c2a" opacity="0.6"/>
    <circle cx="136.0" cy="18.5" r="1.9" fill="rgb(150, 91, 79)" opacity="0.6"/>
    <circle cx="142.1" cy="18.8" r="1.9" fill="rgb(149, 91, 80)" opacity="0.6"/>
    <circle cx="134.9" cy="19.9" r="1.9" fill="rgb(149, 91, 80)" opacity="0.6"/>
    <circle cx="133.9" cy="22.1" r="2.0" fill="rgb(146, 91, 82)" opacity="0.6"/>
    <circle cx="135.2" cy="22.8" r="2.0" fill="rgb(145, 91, 83)" opacity="0.6"/>
    <circle cx="137.5" cy="26.1" r="2.0" fill="rgb(141, 90, 87)" opacity="0.6"/>
    <circle cx="136.7" cy="30.7" r="2.1" fill="rgb(136, 90, 92)" opacity="0.6"/>
    <circle cx="131.9" cy="31.2" r="2.1" fill="rgb(136, 90, 92)" opacity="0.6"/>
    <circle cx="135.1" cy="32.3" r="2.1" fill="rgb(135, 90, 93)" opacity="0.6"/>
    <circle cx="134.8" cy="32.5" r="2.1" fill="rgb(134, 90, 93)" opacity="0.6"/>
    <circle cx="139.0" cy="33.3" r="2.1" fill="rgb(133, 90, 95)" opacity="0.7"/>
    <circle cx="134.3" cy="34.5" r="2.1" fill="rgb(132, 90, 95)" opacity="0.7"/>
    <circle cx="125.8" cy="35.8" r="2.1" fill="rgb(132, 90, 96)" opacity="0.7"/>
    <circle cx="138.9" cy="34.5" r="2.1" fill="rgb(132, 90, 96)" opacity="0.7"/>
    <circle cx="141.4" cy="34.9" r="2.2" fill="#d71c2a" opacity="0.7"/>
    <circle cx="136.6" cy="35.6" r="2.2" fill="rgb(131, 90, 97)" opacity="0.7"/>
    <circle cx="137.7" cy="36.8" r="2.2" fill="rgb(129, 90, 98)" opacity="0.7"/>
    <circle cx="130.7" cy="38.0" r="2.2" fill="rgb(129, 90, 99)" opacity="0.7"/>
    <circle cx="127.4" cy="38.7" r="2.8" fill="rgb(128, 90, 99)" opacity="0.7"/>
    <circle cx="125.1" cy="39.1" r="2.2" fill="rgb(128, 90, 99)" opacity="0.7"/>
    <circle cx="140.1" cy="37.6" r="2.2" fill="rgb(128, 90, 99)" opacity="0.7"/>
    <circle cx="139.0" cy="38.5" r="2.2" fill="rgb(127, 90, 100)" opacity="0.7"/>
    <circle cx="129.3" cy="39.4" r="2.2" fill="rgb(127, 90, 100)" opacity="0.7"/>
    <circle cx="123.4" cy="41.7" r="2.2" fill="rgb(124, 90, 103)" opacity="0.7"/>
    <circle cx="127.7" cy="42.8" r="2.3" fill="rgb(123, 90, 103)" opacity="0.7"/>
    <circle cx="127.4" cy="43.5" r="2.3" fill="rgb(123, 90, 104)" opacity="0.7"/>
    <circle cx="127.2" cy="44.4" r="2.3" fill="rgb(122, 90, 105)" opacity="0.7"/>
    <circle cx="135.2" cy="44.0" r="2.3" fill="rgb(122, 90, 105)" opacity="0.7"/>
    <circle cx="125.9" cy="45.7" r="2.3" fill="rgb(121, 90, 106)" opacity="0.7"/>
    <circle cx="125.5" cy="47.5" r="2.3" fill="#d71c2a" opacity="0.7"/>
    <circle cx="135.5" cy="47.6" r="2.3" fill="rgb(117, 90, 109)" opacity="0.7"/>
    <circle cx="127.2" cy="48.8" r="2.3" fill="rgb(117, 90, 109)" opacity="0.7"/>
    <circle cx="127.6" cy="49.7" r="2.4" fill="rgb(116, 90, 110)" opacity="0.7"/>
    <circle cx="113.6" cy="49.9" r="2.4" fill="rgb(116, 89, 111)" opacity="0.7"/>
    <circle cx="111.8" cy="50.7" r="2.4" fill="rgb(115, 89, 111)" opacity="0.7"/>
    <circle cx="113.6" cy="51.2" r="2.4" fill="rgb(114, 89, 112)" opacity="0.7"/>
    <circle cx="115.3" cy="50.4" r="2.4" fill="rgb(114, 89, 112)" opacity="0.7"/>
    <circle cx="111.0" cy="51.2" r="3.0" fill="rgb(114, 89, 112)" opacity="0.7"/>
    <circle cx="131.8" cy="51.7" r="2.4" fill="rgb(113, 89, 113)" opacity="0.7"/>
    <circle cx="131.4" cy="52.3" r="2.4" fill="rgb(113, 89, 113)" opacity="0.7"/>
    <circle cx="135.5" cy="53.1" r="2.4" fill="rgb(111, 89, 115)" opacity="0.7"/>
    <circle cx="128.6" cy="53.9" r="2.4" fill="rgb(111, 89, 115)" opacity="0.7"/>
    <circle cx="109.1" cy="54.3" r="2.4" fill="rgb(110, 89, 115)" opacity="0.7"/>
    <circle cx="127.4" cy="55.0" r="2.4" fill="rgb(110, 89, 116)" opacity="0.7"/>
    <circle cx="105.9" cy="55.3" r="2.4" fill="#d71c2a" opacity="0.7"/>
    <circle cx="130.0" cy="55.2" r="2.4" fill="rgb(110, 89, 116)" opacity="0.7"/>
    <circle cx="133.9" cy="54.8" r="2.4" fill="rgb(110, 89, 116)" opacity="0.7"/>
    <circle cx="134.7" cy="55.3" r="2.4" fill="rgb(109, 89, 117)" opacity="0.7"/>
    <circle cx="110.2" cy="55.6" r="2.4" fill="rgb(109, 89, 117)" opacity="0.7"/>
    <circle cx="125.4" cy="56.6" r="2.4" fill="rgb(108, 89, 117)" opacity="0.7"/>
    <circle cx="126.6" cy="57.5" r="2.5" fill="rgb(107, 89, 118)" opacity="0.7"/>
    <circle cx="106.7" cy="57.1" r="2.5" fill="rgb(107, 89, 118)" opacity="0.7"/>
    <circle cx="126.8" cy="57.9" r="2.5" fill="rgb(107, 89, 119)" opacity="0.7"/>
    <circle cx="130.3" cy="57.6" r="2.5" fill="rgb(107, 89, 119)" opacity="0.7"/>
    <circle cx="133.7" cy="57.4" r="2.5" fill="rgb(107, 89, 119)" opacity="0.7"/>
    <circle cx="117.3" cy="59.9" r="2.5" fill="rgb(104, 89, 121)" opacity="0.8"/>
    <circle cx="99.0" cy="61.7" r="3.1" fill="rgb(103, 89, 123)" opacity="0.8"/>
    <circle cx="122.7" cy="62.6" r="2.5" fill="rgb(102, 89, 123)" opacity="0.8"/>
    <circle cx="97.9" cy="63.2" r="2.5" fill="rgb(101, 89, 124)" opacity="0.8"/>
    <circle cx="109.6" cy="64.4" r="2.6" fill="#d71c2a" opacity="0.8"/>
    <circle cx="115.2" cy="65.0" r="2.6" fill="rgb(100, 89, 125)" opacity="0.8"/>
    <circle cx="126.0" cy="67.0" r="2.6" fill="rgb(97, 89, 128)" opacity="0.8"/>
    <circle cx="96.9" cy="68.8" r="2.6" fill="rgb(94, 89, 130)" opacity="0.8"/>
    <circle cx="124.0" cy="69.7" r="2.6" fill="rgb(93, 89, 131)" opacity="0.8"/>
    <circle cx="89.0" cy="70.8" r="2.6" fill="rgb(93, 89, 131)" opacity="0.8"/>
    <circle cx="89.4" cy="71.0" r="2.7" fill="rgb(93, 89, 131)" opacity="0.8"/>
    <circle cx="96.9" cy="71.8" r="2.7" fill="rgb(91, 89, 133)" opacity="0.8"/>
    <circle cx="108.6" cy="74.1" r="2.7" fill="rgb(90, 89, 134)" opacity="0.8"/>
    <circle cx="97.6" cy="73.2" r="2.7" fill="rgb(90, 89, 134)" opacity="0.8"/>
    <circle cx="103.9" cy="73.3" r="2.7" fill="rgb(89, 89, 135)" opacity="0.8"/>
    <circle cx="91.5" cy="74.5" r="2.7" fill="rgb(89, 89, 135)" opacity="0.8"/>
    <circle cx="91.3" cy="74.6" r="2.7" fill="rgb(89, 89, 135)" opacity="0.8"/>
    <circle cx="103.3" cy="73.5" r="2.7" fill="rgb(89, 89, 135)" opacity="0.8"/>
    <circle cx="87.7" cy="75.2" r="2.7" fill="rgb(88, 88, 136)" opacity="0.8"/>
    <circle cx="96.6" cy="74.5" r="2.7" fill="#d71c2a" opacity="0.8"/>
    <circle cx="114.5" cy="75.4" r="3.3" fill="rgb(88, 88, 136)" opacity="0.8"/>
    <circle cx="103.0" cy="74.3" r="2.7" fill="rgb(88, 88, 136)" opacity="0.8"/>
    <circle cx="95.2" cy="75.6" r="2.7" fill="rgb(87, 88, 137)" opacity="0.8"/>
    <circle cx="86.8" cy="76.4" r="2.7" fill="rgb(87, 88, 137)" opacity="0.8"/>
    <circle cx="89.4" cy="76.4" r="2.7" fill="rgb(87, 88, 137)" opacity="0.8"/>
    <circle cx="92.5" cy="77.6" r="2.8" fill="rgb(85, 88, 138)" opacity="0.8"/>
    <circle cx="86.7" cy="80.8" r="2.8" fill="rgb(82, 88, 141)" opacity="0.8"/>
    <circle cx="98.7" cy="81.2" r="2.8" fill="rgb(81, 88, 142)" opacity="0.8"/>
    <circle cx="85.6" cy="82.2" r="2.8" fill="rgb(81, 88, 143)" opacity="0.8"/>
    <circle cx="107.4" cy="82.1" r="2.8" fill="rgb(81, 88, 143)" opacity="0.8"/>
    <circle cx="105.6" cy="82.7" r="2.8" fill="rgb(80, 88, 143)" opacity="0.8"/>
    <circle cx="87.2" cy="83.4" r="2.8" fill="rgb(80, 88, 144)" opacity="0.8"/>
    <circle cx="105.2" cy="83.6" r="2.8" fill="rgb(79, 88, 144)" opacity="0.8"/>
    <circle cx="93.7" cy="84.4" r="2.9" fill="rgb(77, 88, 146)" opacity="0.8"/>
    <circle cx="86.6" cy="85.6" r="2.9" fill="#d71c2a" opacity="0.8"/>
    <circle cx="91.6" cy="85.1" r="2.9" fill="rgb(77, 88, 146)" opacity="0.8"/>
    <circle cx="97.3" cy="86.3" r="2.9" fill="rgb(75, 88, 148)" opacity="0.9"/>
    <circle cx="99.4" cy="87.7" r="2.9" fill="rgb(74, 88, 149)" opacity="0.9"/>
    <circle cx="82.9" cy="88.8" r="2.9" fill="rgb(74, 88, 149)" opacity="0.9"/>
    <circle cx="93.8" cy="87.7" r="3.5" fill="rgb(73, 88, 149)" opacity="0.9"/>
    <circle cx="94.3" cy="88.7" r="2.9" fill="rgb(72, 88, 150)" opacity="0.9"/>
    <circle cx="93.0" cy="89.5" r="2.9" fill="rgb(72, 88, 151)" opacity="0.9"/>
    <circle cx="86.2" cy="91.0" r="2.9" fill="rgb(71, 88, 151)" opacity="0.9"/>
    <circle cx="94.9" cy="90.1" r="2.9" fill="rgb(71, 88, 152)" opacity="0.9"/>
    <circle cx="83.9" cy="91.8" r="2.9" fill="rgb(70, 88, 152)" opacity="0.9"/>
    <circle cx="81.0" cy="92.1" r="2.9" fill="rgb(70, 88, 152)" opacity="0.9"/>
    <circle cx="91.7" cy="91.4" r="3.0" fill="rgb(70, 88, 152)" opacity="0.9"/>
    <circle cx="87.3" cy="92.2" r="3.0" fill="rgb(69, 88, 153)" opacity="0.9"/>
    <circle cx="86.0" cy="92.5" r="3.0" fill="rgb(69, 88, 153)" opacity="0.9"/>
    <circle cx="92.6" cy="92.2" r="3.0" fill="#d71c2a" opacity="0.9"/>
    <circle cx="93.3" cy="93.1" r="3.0" fill="rgb(68, 88, 154)" opacity="0.9"/>
    <circle cx="94.9" cy="93.3" r="3.0" fill="rgb(67, 88, 155)" opacity="0.9"/>
    <circle cx="83.1" cy="95.5" r="3.0" fill="rgb(66, 88, 156)" opacity="0.9"/>
    <circle cx="82.7" cy="95.6" r="3.0" fill="rgb(66, 88, 156)" opacity="0.9"/>
    <circle cx="80.0" cy="95.9" r="3.0" fill="rgb(66, 88, 156)" opacity="0.9"/>
    <circle cx="81.9" cy="96.1" r="3.0" fill="rgb(65, 88, 156)" opacity="0.9"/>
    <circle cx="88.7" cy="95.7" r="3.0" fill="rgb(65, 88, 157)" opacity="0.9"/>
    <circle cx="93.5" cy="95.2" r="3.0" fill="rgb(65, 88, 157)" opacity="0.9"/>
    <circle cx="83.6" cy="96.3" r="3.6" fill="rgb(65, 88, 157)" opacity="0.9"/>
    <circle cx="93.1" cy="97.3" r="3.0" fill="rgb(63, 88, 159)" opacity="0.9"/>
    <circle cx="79.0" cy="101.4" r="3.1" fill="rgb(60, 87, 162)" opacity="0.9"/>
    <circle cx="92.5" cy="101.6" r="3.1" fill="rgb(58, 87, 163)" opacity="0.9"/>
    <circle cx="82.8" cy="103.4" r="3.1" fill="rgb(57, 87, 164)" opacity="0.9"/>
    <circle cx="87.8" cy="103.7" r="3.1" fill="rgb(56, 87, 165)" opacity="0.9"/>
    <circle cx="87.1" cy="104.0" r="3.1" fill="#d71c2a" opacity="0.9"/>
    <circle cx="83.2" cy="104.5" r="3.1" fill="rgb(56, 87, 165)" opacity="0.9"/>
    <circle cx="90.0" cy="103.9" r="3.1" fill="rgb(56, 87, 165)" opacity="0.9"/>
    <circle cx="84.3" cy="104.8" r="3.1" fill="rgb(55, 87, 166)" opacity="0.9"/>
    <circle cx="77.6" cy="110.5" r="3.2" fill="rgb(50, 87, 171)" opacity="0.9"/>
    <circle cx="78.2" cy="110.5" r="3.2" fill="rgb(50, 87, 171)" opacity="0.9"/>
    <circle cx="84.5" cy="110.5" r="3.2" fill="rgb(49, 87, 172)" opacity="0.9"/>
    <circle cx="77.3" cy="111.5" r="3.2" fill="rgb(49, 87, 172)" opacity="0.9"/>
    <circle cx="85.3" cy="110.7" r="3.2" fill="rgb(49, 87, 172)" opacity="0.9"/>
    <circle cx="82.5" cy="114.2" r="3.3" fill="rgb(45, 87, 175)" opacity="1.0"/>
    <circle cx="82.8" cy="116.0" r="3.3" fill="rgb(43, 87, 177)" opacity="1.0"/>
  </g>
</svg>
