<svg xmlns="http://www.w3.org/2000/svg" viewBox="0 0 220 130" role="img" aria-labelledby="stochastic-basin-title stochastic-basin-desc">
  <title id="stochastic-basin-title">Stochastic optimization basin attractor</title>
  <desc id="stochastic-basin-desc">Noisy optimization trajectories converging toward a basin.</desc>
  <defs>
    <linearGradient id="stochastic-basin-grad" x1="12" y1="14" x2="208" y2="118" gradientUnits="userSpaceOnUse">
      <stop offset="0" stop-color="#cd9e37"/>
      <stop offset="0.55" stop-color="#b85c30"/>
      <stop offset="1" stop-color="#1456c6"/>
    </linearGradient>
    <radialGradient id="stochastic-basin-wash" cx="52%" cy="42%" r="74%">
      <stop offset="0" stop-color="rgb(245, 236, 215)" stop-opacity="0.74"/>
      <stop offset="1" stop-color="#ffffff" stop-opacity="0"/>
    </radialGradient>
  </defs>
  <rect width="220" height="130" rx="12" fill="url(#stochastic-basin-wash)"/>
  <g><path d="M176.0 77.2 L180.3 77.2 L172.5 68.9 L165.6 65.9 L170.2 72.2 L166.9 75.7 L157.7 69.7 L160.0 64.2 L160.8 68.2 L151.6 74.1 L150.3 71.4 L153.7 65.0 L146.6 66.1 L141.9 72.5 L146.0 73.1 L142.6 67.2 L135.8 65.2 L138.8 70.5 L139.3 73.5 L132.5 68.9 L133.2 64.7 L136.7 67.6 L131.7 71.8 L129.9 69.3 L134.4 64.1 L132.3 64.4 L128.5 68.6 L132.3 68.5 L132.9 63.7 L128.3 61.9 L129.9 65.4 L132.4 67.4 L128.4 64.1 L127.4 61.3 L130.4 63.5 L127.9 66.6 L125.0 65.4 L127.3 62.3 L126.7 63.0 L123.1 66.2 L124.2 66.6 L125.2 63.9 L122.2 63.1 L122.0 65.3 L124.1 66.5 L122.6 64.5 L121.6 62.7 L123.8 63.6 L123.9 64.9 L122.7 63.7 L124.3 61.7 L125.4 61.5 L124.5 62.5 L125.1 62.2 L126.5 60.7 L126.0 60.1 L125.8 60.6 L126.6 60.9 L126.4 60.3 L125.9 60.0 L125.9 60.3 L125.7 60.6 L125.2 60.7 L124.8 60.8" fill="none" stroke="url(#stochastic-basin-grad)" stroke-width="1.2" stroke-linecap="round" opacity="0.2"/>
    <path d="M165.7 107.4 L165.0 100.4 L154.9 91.3 L155.8 92.1 L158.9 97.5 L150.0 94.9 L146.7 86.1 L151.5 84.0 L145.9 89.6 L139.2 90.9 L143.5 83.8 L142.1 79.1 L134.2 83.1 L136.2 86.8 L138.7 82.3 L131.8 75.9 L130.9 77.1 L135.7 81.8 L131.6 80.0 L128.1 73.3 L133.1 71.7 L132.4 75.9 L127.4 76.8 L130.7 71.3 L132.9 67.6 L128.0 70.5 L128.4 73.3 L132.2 70.1 L128.5 65.7 L126.2 66.9 L129.8 70.6 L128.3 69.9 L124.2 65.8 L126.5 65.3 L127.1 68.8 L122.9 70.0 L123.3 66.8 L125.4 64.9 L122.4 67.1 L121.3 69.2 L124.0 67.2 L123.0 64.4 L121.1 65.0 L123.5 67.1 L124.3 66.2 L122.4 63.4 L123.9 62.6 L125.8 64.1 L124.5 64.2 L124.7 62.1 L126.7 60.8 L126.2 61.6 L125.5 62.3 L126.8 61.4 L126.8 60.2 L125.7 60.5 L125.9 61.4 L126.1 61.4 L125.1 60.8 L124.8 60.9 L124.8 61.4 L124.3 61.6 L124.0 61.6 L123.8 61.6" fill="none" stroke="url(#stochastic-basin-grad)" stroke-width="1.2" stroke-linecap="round" opacity="0.13"/>
    <path d="M120.3 116.0 L114.7 105.5 L110.9 100.0 L118.2 104.4 L116.4 106.6 L109.7 99.1 L114.8 91.7 L117.2 93.9 L110.0 98.4 L111.7 94.4 L117.2 86.2 L112.0 85.4 L110.3 90.4 L117.0 89.7 L115.3 82.1 L111.1 78.3 L116.7 82.2 L118.7 84.1 L113.7 78.5 L116.6 73.0 L121.1 74.9 L116.9 78.5 L116.5 75.8 L121.8 69.9 L119.6 69.7 L116.4 74.0 L120.6 74.1 L120.9 69.2 L116.3 67.2 L118.4 70.7 L120.7 72.9 L116.6 69.7 L116.4 66.5 L119.8 68.4 L117.5 71.4 L115.5 69.9 L119.0 66.1 L119.0 66.1 L116.5 68.8 L119.0 68.6 L121.0 65.2 L118.9 63.6 L119.9 65.3 L122.9 66.2 L121.8 63.8 L121.4 61.5 L124.1 62.2 L124.1 63.6 L122.8 62.6 L124.4 60.6 L125.1 60.6 L123.6 62.1 L123.8 62.2 L124.7 61.0 L123.5 60.7 L123.0 61.6 L123.6 62.3 L123.1 61.8 L122.4 61.3 L122.8 61.6 L122.9 61.9 L122.8 61.6 L123.1 61.3 L123.5 61.0" fill="none" stroke="url(#stochastic-basin-grad)" stroke-width="1.2" stroke-linecap="round" opacity="0.2"/>
    <path d="M66.9 97.0 L61.6 88.2 L67.9 89.1 L75.0 95.2 L70.2 93.1 L72.0 84.4 L81.1 81.9 L79.1 87.4 L77.1 88.8 L85.8 81.5 L87.7 76.1 L83.7 79.6 L89.9 83.4 L95.3 78.7 L91.2 71.8 L93.7 72.6 L100.9 77.5 L98.5 76.0 L97.4 69.4 L104.2 67.8 L104.4 72.4 L100.7 73.9 L105.3 69.0 L108.0 65.6 L103.6 68.9 L105.3 72.4 L109.6 69.7 L106.4 65.4 L105.3 66.7 L110.0 70.8 L109.1 70.2 L106.5 65.8 L110.4 64.9 L112.1 68.2 L109.2 69.2 L111.5 65.6 L115.0 62.9 L113.1 64.8 L113.6 66.6 L117.6 64.4 L117.2 61.2 L116.2 61.6 L119.4 63.7 L120.4 63.1 L118.6 60.4 L120.3 59.8 L121.9 61.7 L120.2 62.4 L120.3 60.7 L122.0 59.7 L120.9 61.0 L120.0 62.3 L121.2 61.6 L121.1 60.6 L120.0 61.0 L120.7 62.0 L121.3 61.9 L120.8 60.9 L121.3 60.6 L122.2 60.9 L122.5 60.7 L123.1 60.0 L123.9 59.5 L124.7 59.1" fill="none" stroke="url(#stochastic-basin-grad)" stroke-width="1.2" stroke-linecap="round" opacity="0.13"/>
    <path d="M39.7 60.2 L40.8 57.3 L52.3 64.2 L53.8 69.1 L51.3 63.9 L60.8 58.0 L66.4 61.7 L62.6 68.1 L68.5 65.8 L76.9 58.7 L74.2 58.8 L75.7 65.2 L84.8 66.2 L84.6 59.9 L82.5 57.1 L90.0 62.3 L92.7 66.0 L88.7 61.9 L93.0 57.5 L98.0 60.6 L94.1 65.8 L94.8 64.4 L100.7 59.5 L98.8 60.0 L96.6 65.2 L102.1 66.3 L102.9 61.8 L99.6 60.0 L103.3 63.8 L106.7 66.3 L103.8 63.1 L105.4 59.6 L110.3 61.3 L109.0 64.5 L108.5 63.0 L113.3 59.0 L113.9 58.8 L112.1 61.8 L115.5 62.0 L117.7 58.8 L115.5 57.4 L116.8 59.7 L119.5 61.3 L117.9 59.5 L117.3 57.7 L119.8 59.0 L119.2 61.2 L117.6 60.8 L119.2 59.1 L119.7 59.3 L118.1 61.1 L118.9 61.4 L120.2 60.1 L119.4 59.5 L119.7 60.3 L121.2 60.7 L121.5 59.7 L121.7 58.8 L123.1 58.7 L123.9 58.7 L124.4 58.2 L125.3 57.5 L126.2 57.1 L126.8 56.8" fill="none" stroke="url(#stochastic-basin-grad)" stroke-width="1.2" stroke-linecap="round" opacity="0.2"/>
    <path d="M58.4 26.0 L66.2 30.3 L73.7 39.8 L69.4 41.2 L72.8 35.2 L82.5 35.0 L80.6 43.1 L79.6 47.3 L88.9 42.4 L90.3 39.0 L86.3 44.7 L92.9 51.0 L97.4 48.7 L92.6 43.8 L95.2 46.5 L101.5 53.6 L98.0 54.3 L96.7 49.4 L103.2 49.1 L102.4 55.3 L98.7 58.5 L103.7 54.7 L106.0 51.9 L101.8 55.9 L104.4 60.3 L109.1 58.2 L106.2 54.0 L106.3 55.4 L111.9 59.8 L111.3 59.6 L109.5 55.3 L114.3 54.3 L116.0 57.9 L113.3 59.4 L116.1 56.2 L119.3 53.9 L116.9 56.3 L117.2 59.0 L120.8 57.5 L119.4 54.9 L117.8 55.9 L120.5 59.0 L120.6 59.2 L118.2 56.9 L119.6 56.7 L120.9 59.2 L118.9 60.3 L119.2 58.8 L121.1 57.6 L120.3 58.9 L119.9 60.1 L121.9 59.2 L122.4 57.7 L122.0 57.7 L123.6 58.5 L124.8 58.1 L124.7 56.8 L125.7 56.3 L127.0 56.5 L127.2 56.4 L127.7 55.9 L128.4 55.5 L128.6 55.5 L128.8 55.4" fill="none" stroke="url(#stochastic-basin-grad)" stroke-width="1.2" stroke-linecap="round" opacity="0.13"/>
    <path d="M113.2 14.0 L121.6 23.1 L119.3 30.5 L114.1 27.6 L121.2 23.5 L123.0 28.9 L116.2 37.5 L119.7 37.5 L124.7 32.3 L118.6 34.0 L117.7 42.4 L124.0 45.5 L120.4 40.9 L116.1 39.5 L121.6 46.1 L121.5 51.4 L115.5 48.6 L118.8 44.9 L122.0 48.6 L116.6 54.7 L117.0 54.1 L122.2 49.4 L119.2 49.9 L117.1 55.3 L122.5 56.7 L122.5 52.4 L119.0 50.3 L122.8 54.2 L125.5 57.2 L121.8 54.3 L123.1 51.0 L127.1 53.0 L124.5 56.8 L123.2 56.1 L127.0 52.7 L126.0 53.0 L123.1 56.8 L125.5 57.9 L126.3 55.3 L122.9 54.3 L123.6 57.1 L125.6 59.3 L123.2 57.8 L122.5 56.0 L124.9 57.3 L124.1 59.5 L122.8 58.9 L125.0 56.8 L125.8 56.6 L124.6 58.1 L126.0 58.2 L127.7 56.4 L127.1 55.4 L127.7 56.2 L129.4 56.6 L129.4 55.6 L129.3 54.7 L130.4 54.9 L130.6 55.4 L130.3 55.2 L130.5 54.9 L130.5 55.0 L130.2 55.3 L130.0 55.5" fill="none" stroke="url(#stochastic-basin-grad)" stroke-width="1.2" stroke-linecap="round" opacity="0.2"/>
    <path d="M170.5 31.4 L172.0 40.8 L162.1 42.4 L161.0 36.2 L165.5 35.7 L158.0 44.0 L152.8 48.8 L157.7 44.3 L154.0 40.9 L146.2 46.6 L149.4 53.4 L149.8 51.5 L141.6 46.4 L141.9 48.8 L145.5 55.8 L139.3 56.6 L136.6 51.3 L141.6 50.2 L138.7 55.9 L134.0 58.9 L138.3 54.5 L139.1 51.0 L133.7 54.4 L135.8 58.6 L139.2 56.4 L134.8 51.8 L134.1 52.8 L138.3 57.4 L135.8 57.6 L132.6 53.4 L136.1 52.6 L135.8 56.6 L131.4 58.8 L132.9 56.0 L134.4 53.9 L130.3 56.6 L129.8 59.8 L132.3 58.6 L129.8 55.8 L127.7 56.7 L130.3 59.8 L129.9 59.8 L127.4 57.1 L129.3 56.3 L130.7 58.4 L128.7 59.2 L129.5 57.1 L131.8 55.4 L130.9 56.3 L130.6 57.4 L132.7 56.3 L132.7 54.6 L131.9 54.7 L133.1 55.8 L133.6 55.7 L132.5 54.7 L132.7 54.5 L133.1 55.3 L132.3 55.7 L131.8 55.5 L131.8 55.4 L131.4 55.8 L131.0 56.1 L130.7 56.2" fill="none" stroke="url(#stochastic-basin-grad)" stroke-width="1.2" stroke-linecap="round" opacity="0.13"/></g>
  <g style="filter: drop-shadow(0 2px 3px rgba(20, 31, 52, 0.2));">
    <circle cx="176.0" cy="77.2" r="2.5" fill="#1456c6" opacity="0.6"/>
    <circle cx="135.8" cy="65.2" r="2.0" fill="rgb(200, 142, 53)" opacity="0.6"/>
    <circle cx="134.2" cy="83.1" r="2.0" fill="rgb(200, 141, 53)" opacity="0.6"/>
    <circle cx="110.0" cy="98.4" r="2.0" fill="rgb(200, 141, 53)" opacity="0.6"/>
    <circle cx="170.2" cy="72.2" r="2.0" fill="rgb(200, 141, 53)" opacity="0.6"/>
    <circle cx="133.2" cy="64.7" r="2.0" fill="rgb(200, 141, 53)" opacity="0.6"/>
    <circle cx="70.2" cy="93.1" r="2.0" fill="rgb(199, 140, 53)" opacity="0.6"/>
    <circle cx="165.7" cy="107.4" r="2.0" fill="rgb(199, 140, 53)" opacity="0.6"/>
    <circle cx="130.9" cy="77.1" r="2.0" fill="rgb(199, 140, 53)" opacity="0.6"/>
    <circle cx="146.6" cy="66.1" r="2.0" fill="rgb(199, 140, 53)" opacity="0.6"/>
    <circle cx="39.7" cy="60.2" r="2.0" fill="rgb(199, 140, 53)" opacity="0.6"/>
    <circle cx="110.3" cy="90.4" r="2.1" fill="rgb(199, 140, 53)" opacity="0.6"/>
    <circle cx="145.9" cy="89.6" r="2.1" fill="rgb(199, 140, 53)" opacity="0.6"/>
    <circle cx="77.1" cy="88.8" r="2.1" fill="rgb(199, 139, 53)" opacity="0.6"/>
    <circle cx="116.4" cy="106.6" r="2.1" fill="rgb(199, 139, 53)" opacity="0.6"/>
    <circle cx="51.3" cy="63.9" r="2.1" fill="#1456c6" opacity="0.6"/>
    <circle cx="160.8" cy="68.2" r="2.1" fill="rgb(199, 139, 53)" opacity="0.6"/>
    <circle cx="66.9" cy="97.0" r="2.1" fill="rgb(199, 139, 53)" opacity="0.6"/>
    <circle cx="58.4" cy="26.0" r="2.1" fill="rgb(199, 139, 53)" opacity="0.6"/>
    <circle cx="158.9" cy="97.5" r="2.7" fill="rgb(199, 138, 53)" opacity="0.6"/>
    <circle cx="120.3" cy="116.0" r="2.1" fill="rgb(199, 138, 53)" opacity="0.6"/>
    <circle cx="134.4" cy="64.1" r="2.2" fill="rgb(198, 136, 53)" opacity="0.7"/>
    <circle cx="133.1" cy="71.7" r="2.2" fill="rgb(198, 136, 53)" opacity="0.7"/>
    <circle cx="116.7" cy="82.2" r="2.2" fill="rgb(198, 135, 53)" opacity="0.7"/>
    <circle cx="89.9" cy="83.4" r="2.2" fill="rgb(198, 135, 53)" opacity="0.7"/>
    <circle cx="68.5" cy="65.8" r="2.2" fill="rgb(198, 134, 53)" opacity="0.7"/>
    <circle cx="72.8" cy="35.2" r="2.2" fill="rgb(197, 134, 52)" opacity="0.7"/>
    <circle cx="113.2" cy="14.0" r="2.3" fill="rgb(197, 133, 52)" opacity="0.7"/>
    <circle cx="132.9" cy="63.7" r="2.3" fill="rgb(196, 131, 52)" opacity="0.7"/>
    <circle cx="132.9" cy="67.6" r="2.4" fill="rgb(196, 130, 52)" opacity="0.7"/>
    <circle cx="124.1" cy="66.5" r="2.4" fill="#1456c6" opacity="0.7"/>
    <circle cx="124.2" cy="66.6" r="2.4" fill="rgb(196, 130, 52)" opacity="0.7"/>
    <circle cx="121.1" cy="74.9" r="2.4" fill="rgb(196, 130, 52)" opacity="0.7"/>
    <circle cx="124.0" cy="67.2" r="2.4" fill="rgb(196, 130, 52)" opacity="0.7"/>
    <circle cx="123.3" cy="66.8" r="2.4" fill="rgb(196, 130, 52)" opacity="0.7"/>
    <circle cx="100.9" cy="77.5" r="2.4" fill="rgb(196, 129, 52)" opacity="0.7"/>
    <circle cx="119.0" cy="66.1" r="2.4" fill="rgb(196, 129, 52)" opacity="0.7"/>
    <circle cx="116.4" cy="66.5" r="2.4" fill="rgb(196, 129, 52)" opacity="0.7"/>
    <circle cx="84.8" cy="66.2" r="3.0" fill="rgb(196, 129, 52)" opacity="0.7"/>
    <circle cx="110.4" cy="64.9" r="2.4" fill="rgb(196, 129, 52)" opacity="0.7"/>
    <circle cx="105.3" cy="66.7" r="2.4" fill="rgb(196, 129, 52)" opacity="0.7"/>
    <circle cx="88.9" cy="42.4" r="2.4" fill="rgb(196, 128, 52)" opacity="0.7"/>
    <circle cx="103.3" cy="63.8" r="2.4" fill="rgb(196, 128, 52)" opacity="0.7"/>
    <circle cx="96.6" cy="65.2" r="2.4" fill="rgb(196, 128, 52)" opacity="0.7"/>
    <circle cx="125.0" cy="65.4" r="2.4" fill="rgb(195, 128, 52)" opacity="0.7"/>
    <circle cx="121.2" cy="23.5" r="2.4" fill="#1456c6" opacity="0.7"/>
    <circle cx="104.4" cy="60.3" r="2.4" fill="rgb(195, 128, 52)" opacity="0.7"/>
    <circle cx="98.7" cy="58.5" r="2.4" fill="rgb(195, 128, 52)" opacity="0.7"/>
    <circle cx="124.2" cy="65.8" r="2.4" fill="rgb(195, 128, 52)" opacity="0.7"/>
    <circle cx="128.4" cy="64.1" r="2.4" fill="rgb(195, 128, 52)" opacity="0.7"/>
    <circle cx="170.5" cy="31.4" r="2.5" fill="rgb(195, 127, 52)" opacity="0.7"/>
    <circle cx="117.0" cy="54.1" r="2.5" fill="rgb(195, 127, 52)" opacity="0.7"/>
    <circle cx="115.5" cy="48.6" r="2.5" fill="rgb(195, 127, 52)" opacity="0.7"/>
    <circle cx="116.3" cy="67.2" r="2.5" fill="rgb(195, 127, 52)" opacity="0.7"/>
    <circle cx="128.5" cy="65.7" r="2.5" fill="rgb(195, 127, 52)" opacity="0.7"/>
    <circle cx="136.6" cy="51.3" r="2.5" fill="rgb(195, 127, 52)" opacity="0.7"/>
    <circle cx="141.6" cy="46.4" r="2.5" fill="rgb(195, 127, 52)" opacity="0.7"/>
    <circle cx="103.6" cy="68.9" r="3.1" fill="rgb(195, 127, 52)" opacity="0.7"/>
    <circle cx="119.6" cy="69.7" r="2.5" fill="rgb(195, 127, 52)" opacity="0.7"/>
    <circle cx="123.9" cy="64.9" r="2.5" fill="rgb(195, 126, 52)" opacity="0.7"/>
    <circle cx="94.1" cy="65.8" r="2.5" fill="#1456c6" opacity="0.7"/>
    <circle cx="104.4" cy="72.4" r="2.5" fill="rgb(195, 126, 52)" opacity="0.7"/>
    <circle cx="124.3" cy="66.2" r="2.5" fill="rgb(195, 126, 52)" opacity="0.8"/>
    <circle cx="98.0" cy="54.3" r="2.5" fill="rgb(195, 126, 52)" opacity="0.8"/>
    <circle cx="92.7" cy="66.0" r="2.5" fill="rgb(195, 126, 52)" opacity="0.8"/>
    <circle cx="121.0" cy="65.2" r="2.5" fill="rgb(195, 125, 52)" opacity="0.8"/>
    <circle cx="120.4" cy="40.9" r="2.5" fill="rgb(195, 125, 52)" opacity="0.8"/>
    <circle cx="97.4" cy="48.7" r="2.5" fill="rgb(195, 125, 52)" opacity="0.8"/>
    <circle cx="115.0" cy="62.9" r="2.5" fill="rgb(195, 125, 52)" opacity="0.8"/>
    <circle cx="154.0" cy="40.9" r="2.5" fill="rgb(194, 125, 51)" opacity="0.8"/>
    <circle cx="124.7" cy="32.3" r="2.5" fill="rgb(194, 125, 51)" opacity="0.8"/>
    <circle cx="110.3" cy="61.3" r="2.5" fill="rgb(194, 125, 51)" opacity="0.8"/>
    <circle cx="165.5" cy="35.7" r="2.6" fill="rgb(194, 124, 51)" opacity="0.8"/>
    <circle cx="111.9" cy="59.8" r="2.6" fill="rgb(194, 124, 51)" opacity="0.8"/>
    <circle cx="122.5" cy="56.7" r="2.6" fill="rgb(194, 124, 51)" opacity="0.8"/>
    <circle cx="138.3" cy="54.5" r="2.6" fill="#1456c6" opacity="0.8"/>
    <circle cx="124.5" cy="62.5" r="3.3" fill="rgb(193, 121, 51)" opacity="0.8"/>
    <circle cx="124.5" cy="64.2" r="2.7" fill="rgb(193, 120, 51)" opacity="0.8"/>
    <circle cx="121.8" cy="63.8" r="2.7" fill="rgb(193, 120, 51)" opacity="0.8"/>
    <circle cx="117.2" cy="61.2" r="2.7" fill="rgb(193, 119, 51)" opacity="0.8"/>
    <circle cx="113.9" cy="58.8" r="2.7" fill="rgb(193, 119, 51)" opacity="0.8"/>
    <circle cx="116.0" cy="57.9" r="2.7" fill="rgb(192, 118, 51)" opacity="0.8"/>
    <circle cx="122.9" cy="61.9" r="2.8" fill="rgb(192, 118, 51)" opacity="0.8"/>
    <circle cx="125.5" cy="57.2" r="2.8" fill="rgb(192, 118, 51)" opacity="0.8"/>
    <circle cx="124.8" cy="61.4" r="2.8" fill="rgb(192, 118, 51)" opacity="0.8"/>
    <circle cx="121.3" cy="61.9" r="2.8" fill="rgb(192, 118, 51)" opacity="0.8"/>
    <circle cx="139.2" cy="56.4" r="2.8" fill="rgb(192, 117, 51)" opacity="0.8"/>
    <circle cx="123.6" cy="62.3" r="2.8" fill="rgb(192, 117, 51)" opacity="0.8"/>
    <circle cx="120.2" cy="60.1" r="2.8" fill="rgb(192, 117, 51)" opacity="0.8"/>
    <circle cx="121.2" cy="61.6" r="2.8" fill="rgb(192, 117, 51)" opacity="0.8"/>
    <circle cx="121.1" cy="57.6" r="2.8" fill="#1456c6" opacity="0.8"/>
    <circle cx="125.8" cy="60.6" r="2.8" fill="rgb(192, 117, 51)" opacity="0.8"/>
    <circle cx="119.2" cy="59.1" r="2.8" fill="rgb(192, 116, 51)" opacity="0.8"/>
    <circle cx="125.9" cy="60.3" r="2.8" fill="rgb(192, 116, 51)" opacity="0.8"/>
    <circle cx="124.9" cy="57.3" r="2.8" fill="rgb(192, 116, 51)" opacity="0.8"/>
    <circle cx="125.5" cy="62.3" r="3.4" fill="rgb(192, 116, 51)" opacity="0.8"/>
    <circle cx="119.6" cy="56.7" r="2.8" fill="rgb(192, 116, 51)" opacity="0.8"/>
    <circle cx="125.9" cy="61.4" r="2.8" fill="rgb(192, 116, 51)" opacity="0.8"/>
    <circle cx="130.3" cy="59.8" r="2.8" fill="rgb(192, 116, 51)" opacity="0.8"/>
    <circle cx="122.8" cy="62.6" r="2.8" fill="rgb(192, 116, 51)" opacity="0.8"/>
    <circle cx="123.6" cy="57.1" r="2.8" fill="rgb(191, 115, 50)" opacity="0.8"/>
    <circle cx="123.8" cy="62.2" r="2.8" fill="rgb(191, 115, 50)" opacity="0.8"/>
    <circle cx="118.6" cy="60.4" r="2.8" fill="rgb(191, 115, 50)" opacity="0.8"/>
    <circle cx="122.5" cy="60.7" r="2.9" fill="rgb(191, 115, 50)" opacity="0.8"/>
    <circle cx="129.8" cy="59.8" r="2.9" fill="rgb(191, 115, 50)" opacity="0.8"/>
    <circle cx="120.3" cy="60.7" r="2.9" fill="#1456c6" opacity="0.8"/>
    <circle cx="115.5" cy="57.4" r="2.9" fill="rgb(191, 115, 50)" opacity="0.8"/>
    <circle cx="121.5" cy="59.7" r="2.9" fill="rgb(191, 114, 50)" opacity="0.8"/>
    <circle cx="117.3" cy="57.7" r="2.9" fill="rgb(191, 114, 50)" opacity="0.8"/>
    <circle cx="116.9" cy="56.3" r="2.9" fill="rgb(191, 114, 50)" opacity="0.8"/>
    <circle cx="122.4" cy="57.7" r="2.9" fill="rgb(191, 114, 50)" opacity="0.9"/>
    <circle cx="117.8" cy="55.9" r="2.9" fill="rgb(191, 114, 50)" opacity="0.9"/>
    <circle cx="124.5" cy="56.8" r="2.9" fill="rgb(191, 114, 50)" opacity="0.9"/>
    <circle cx="125.8" cy="56.6" r="2.9" fill="rgb(191, 114, 50)" opacity="0.9"/>
    <circle cx="123.1" cy="56.8" r="3.5" fill="rgb(191, 113, 50)" opacity="0.9"/>
    <circle cx="135.8" cy="57.6" r="2.9" fill="rgb(191, 113, 50)" opacity="0.9"/>
    <circle cx="130.7" cy="58.4" r="2.9" fill="rgb(191, 113, 50)" opacity="0.9"/>
    <circle cx="131.4" cy="58.8" r="2.9" fill="rgb(191, 113, 50)" opacity="0.9"/>
    <circle cx="124.4" cy="58.2" r="3.0" fill="rgb(189, 109, 50)" opacity="0.9"/>
    <circle cx="124.7" cy="56.8" r="3.1" fill="rgb(189, 109, 50)" opacity="0.9"/>
    <circle cx="127.1" cy="55.4" r="3.1" fill="#1456c6" opacity="0.9"/>
    <circle cx="130.9" cy="56.3" r="3.1" fill="rgb(189, 108, 50)" opacity="0.9"/>
    <circle cx="127.7" cy="55.9" r="3.2" fill="rgb(188, 104, 49)" opacity="0.9"/>
    <circle cx="129.3" cy="54.7" r="3.2" fill="rgb(188, 103, 49)" opacity="0.9"/>
    <circle cx="131.8" cy="55.4" r="3.2" fill="rgb(187, 103, 49)" opacity="0.9"/>
    <circle cx="131.9" cy="54.7" r="3.3" fill="rgb(187, 103, 49)" opacity="0.9"/>
    <circle cx="130.5" cy="54.9" r="3.3" fill="rgb(187, 102, 49)" opacity="1.0"/>
    <circle cx="132.7" cy="54.5" r="3.3" fill="rgb(187, 101, 49)" opacity="1.0"/>
  </g>
</svg>
