<svg xmlns="http://www.w3.org/2000/svg" viewBox="0 0 220 130" role="img" aria-labelledby="kuramoto-sync-title kuramoto-sync-desc">
  <title id="kuramoto-sync-title">Multi-agent synchronization attractor</title>
  <desc id="kuramoto-sync-desc">Coupled trajectories converging toward a synchronization manifold.</desc>
  <defs>
    <linearGradient id="kuramoto-sync-grad" x1="12" y1="14" x2="208" y2="118" gradientUnits="userSpaceOnUse">
      <stop offset="0" stop-color="#1456c6"/>
      <stop offset="0.55" stop-color="#d71c2a"/>
      <stop offset="1" stop-color="#cd9e37"/>
    </linearGradient>
    <radialGradient id="kuramoto-sync-wash" cx="52%" cy="42%" r="74%">
      <stop offset="0" stop-color="rgb(208, 221, 244)" stop-opacity="0.74"/>
      <stop offset="1" stop-color="#ffffff" stop-opacity="0"/>
    </radialGradient>
  </defs>
  <rect width="220" height="130" rx="12" fill="url(#kuramoto-sync-wash)"/>
  <g><path d="M162.7 66.0 L162.8 72.5 L161.6 78.7 L159.1 84.6 L155.5 90.1 L151.0 95.0 L145.7 99.2 L139.8 102.7 L133.4 105.4 L126.7 107.4 L120.0 108.6 L113.3 109.1 L106.8 109.0 L100.6 108.2 L94.8 106.9 L89.4 105.1 L84.5 102.9 L80.2 100.4 L76.5 97.6 L73.3 94.5 L70.6 91.4 L68.5 88.1 L66.8 84.7 L65.6 81.4 L64.9 78.0 L64.5 74.6 L64.6 71.2 L64.9 68.0 L65.6 64.7 L66.5 61.5 L67.7 58.4 L69.1 55.4 L70.8 52.4 L72.7 49.5 L74.8 46.6 L77.1 43.8 L79.7 41.1 L82.5 38.5 L85.5 35.9 L88.8 33.5 L92.4 31.2 L96.2 29.0 L100.2 27.0 L104.6 25.2 L109.1 23.6 L113.9 22.3 L118.9 21.3 L124.0 20.6 L129.2 20.2 L134.4 20.3 L139.6 20.7 L144.6 21.5 L149.4 22.6 L153.9 24.2 L158.1 26.0 L161.8 28.1 L165.1 30.5 L167.8 33.0 L170.0 35.6 L171.6 38.3" fill="none" stroke="url(#kuramoto-sync-grad)" stroke-width="1.2" stroke-linecap="round" opacity="0.2"/>
    <path d="M95.7 116.0 L89.5 115.1 L83.8 113.8 L78.5 112.0 L73.7 109.9 L69.5 107.6 L65.8 105.0 L62.6 102.2 L60.0 99.3 L57.9 96.4 L56.2 93.4 L55.0 90.4 L54.1 87.5 L53.6 84.5 L53.5 81.6 L53.6 78.8 L54.0 76.0 L54.5 73.3 L55.3 70.6 L56.2 67.9 L57.3 65.3 L58.6 62.8 L59.9 60.3 L61.4 57.8 L62.9 55.3 L64.6 52.8 L66.4 50.3 L68.3 47.9 L70.4 45.4 L72.6 43.0 L75.0 40.5 L77.5 38.1 L80.3 35.7 L83.3 33.3 L86.5 31.0 L90.0 28.8 L93.7 26.8 L97.7 24.8 L101.9 23.1 L106.4 21.5 L111.1 20.2 L115.9 19.2 L120.8 18.4 L125.9 18.0 L130.9 17.9 L135.9 18.2 L140.7 18.7 L145.4 19.6 L149.8 20.8 L153.9 22.3 L157.6 24.0 L161.0 25.9 L163.9 28.0 L166.4 30.2 L168.5 32.5 L170.1 34.7 L171.3 37.0 L172.0 39.2 L172.4 41.3 L172.5 43.3" fill="none" stroke="url(#kuramoto-sync-grad)" stroke-width="1.2" stroke-linecap="round" opacity="0.13"/>
    <path d="M64.4 108.7 L62.2 106.4 L60.3 104.1 L58.8 101.8 L57.6 99.4 L56.7 97.1 L56.1 94.7 L55.6 92.3 L55.3 89.9 L55.2 87.5 L55.3 85.2 L55.4 82.8 L55.6 80.4 L56.0 77.9 L56.4 75.5 L56.9 73.0 L57.4 70.5 L58.0 67.9 L58.8 65.3 L59.6 62.6 L60.5 59.9 L61.5 57.1 L62.8 54.2 L64.2 51.3 L65.8 48.4 L67.6 45.4 L69.7 42.4 L72.1 39.4 L74.8 36.4 L77.9 33.5 L81.3 30.6 L85.1 28.0 L89.2 25.5 L93.6 23.2 L98.3 21.1 L103.3 19.4 L108.4 18.0 L113.7 16.9 L119.1 16.2 L124.5 15.8 L129.8 15.8 L135.0 16.2 L140.0 17.0 L144.7 18.0 L149.1 19.4 L153.1 20.9 L156.7 22.7 L160.0 24.7 L162.7 26.7 L165.1 28.9 L167.0 31.0 L168.6 33.2 L169.7 35.3 L170.5 37.4 L171.0 39.4 L171.2 41.2 L171.2 43.0 L171.0 44.7 L170.6 46.2 L170.0 47.6" fill="none" stroke="url(#kuramoto-sync-grad)" stroke-width="1.2" stroke-linecap="round" opacity="0.2"/>
    <path d="M50.2 95.2 L50.4 93.2 L50.6 91.2 L50.9 89.2 L51.2 87.1 L51.5 84.9 L51.8 82.7 L52.1 80.4 L52.4 78.0 L52.8 75.6 L53.1 73.1 L53.5 70.4 L54.0 67.7 L54.6 64.9 L55.3 61.9 L56.1 58.9 L57.2 55.8 L58.4 52.6 L60.0 49.3 L61.8 46.0 L63.9 42.7 L66.4 39.3 L69.3 36.0 L72.6 32.9 L76.2 29.8 L80.3 26.9 L84.7 24.2 L89.4 21.8 L94.4 19.7 L99.6 17.9 L105.0 16.4 L110.5 15.3 L116.0 14.6 L121.5 14.3 L126.9 14.3 L132.1 14.7 L137.1 15.4 L141.8 16.4 L146.1 17.7 L150.1 19.2 L153.7 20.8 L156.9 22.6 L159.7 24.5 L162.2 26.4 L164.2 28.4 L165.9 30.4 L167.3 32.3 L168.4 34.2 L169.2 36.0 L169.8 37.8 L170.2 39.5 L170.4 41.1 L170.5 42.6 L170.4 44.0 L170.3 45.3 L170.0 46.6 L169.8 47.7 L169.4 48.9 L169.0 49.9 L168.6 51.0" fill="none" stroke="url(#kuramoto-sync-grad)" stroke-width="1.2" stroke-linecap="round" opacity="0.13"/>
    <path d="M42.5 48.8 L44.6 47.4 L46.8 45.8 L49.0 44.0 L51.4 42.2 L53.9 40.2 L56.5 38.2 L59.2 36.1 L62.2 34.0 L65.3 31.8 L68.7 29.6 L72.3 27.4 L76.1 25.3 L80.2 23.3 L84.6 21.4 L89.1 19.7 L93.8 18.1 L98.8 16.8 L103.8 15.7 L109.0 14.8 L114.2 14.3 L119.4 14.0 L124.5 14.0 L129.5 14.3 L134.4 14.8 L139.0 15.6 L143.4 16.6 L147.4 17.9 L151.2 19.3 L154.6 20.8 L157.7 22.4 L160.4 24.1 L162.8 25.8 L164.8 27.6 L166.5 29.3 L167.9 31.0 L169.0 32.7 L169.9 34.3 L170.6 35.8 L171.1 37.2 L171.4 38.6 L171.6 39.9 L171.6 41.1 L171.6 42.2 L171.5 43.2 L171.4 44.2 L171.3 45.1 L171.1 45.9 L170.9 46.7 L170.8 47.5 L170.7 48.2 L170.6 49.0 L170.5 49.7 L170.4 50.4 L170.4 51.1 L170.3 51.9 L170.2 52.6 L170.1 53.4 L170.0 54.1 L169.9 54.9" fill="none" stroke="url(#kuramoto-sync-grad)" stroke-width="1.2" stroke-linecap="round" opacity="0.2"/>
    <path d="M83.4 19.3 L87.6 18.4 L91.9 17.6 L96.4 16.8 L101.0 16.2 L105.8 15.7 L110.7 15.4 L115.6 15.3 L120.6 15.3 L125.6 15.6 L130.5 16.1 L135.3 16.9 L140.0 17.8 L144.4 19.0 L148.7 20.3 L152.6 21.8 L156.3 23.4 L159.6 25.1 L162.6 26.9 L165.2 28.7 L167.5 30.5 L169.5 32.3 L171.2 34.1 L172.5 35.8 L173.6 37.4 L174.4 38.9 L175.0 40.4 L175.3 41.7 L175.5 42.9 L175.5 44.0 L175.4 44.9 L175.2 45.8 L174.9 46.6 L174.6 47.3 L174.2 47.9 L173.8 48.4 L173.4 48.9 L173.0 49.3 L172.6 49.7 L172.3 50.0 L172.0 50.4 L171.8 50.7 L171.6 51.0 L171.4 51.3 L171.4 51.7 L171.3 52.0 L171.4 52.4 L171.4 52.8 L171.5 53.3 L171.7 53.8 L171.8 54.3 L171.9 54.8 L172.0 55.4 L172.1 56.0 L172.2 56.7 L172.2 57.4 L172.1 58.0 L171.9 58.7 L171.7 59.4 L171.3 60.0" fill="none" stroke="url(#kuramoto-sync-grad)" stroke-width="1.2" stroke-linecap="round" opacity="0.13"/>
    <path d="M126.5 15.8 L131.8 16.6 L137.0 17.7 L141.9 19.0 L146.6 20.5 L151.0 22.1 L155.0 23.9 L158.7 25.8 L162.1 27.8 L165.1 29.8 L167.7 31.8 L170.0 33.7 L171.9 35.6 L173.5 37.5 L174.8 39.2 L175.8 40.8 L176.6 42.3 L177.1 43.6 L177.4 44.8 L177.5 45.9 L177.5 46.8 L177.4 47.6 L177.1 48.3 L176.8 48.9 L176.4 49.4 L176.0 49.8 L175.6 50.1 L175.1 50.4 L174.7 50.6 L174.2 50.8 L173.8 50.9 L173.5 51.1 L173.2 51.2 L172.9 51.4 L172.7 51.6 L172.6 51.8 L172.5 52.0 L172.5 52.2 L172.6 52.5 L172.7 52.9 L172.9 53.2 L173.1 53.7 L173.3 54.1 L173.5 54.7 L173.8 55.2 L174.0 55.9 L174.2 56.5 L174.3 57.2 L174.4 58.0 L174.4 58.7 L174.3 59.5 L174.2 60.2 L173.9 61.0 L173.5 61.7 L173.1 62.3 L172.5 62.9 L171.8 63.4 L171.1 63.8 L170.3 64.2 L169.4 64.4" fill="none" stroke="url(#kuramoto-sync-grad)" stroke-width="1.2" stroke-linecap="round" opacity="0.2"/></g>
  <g style="filter: drop-shadow(0 2px 3px rgba(20, 31, 52, 0.2));">
    <circle cx="162.7" cy="66.0" r="2.5" fill="#cd9e37" opacity="0.6"/>
    <circle cx="95.7" cy="116.0" r="1.9" fill="rgb(60, 74, 166)" opacity="0.6"/>
    <circle cx="159.1" cy="84.6" r="1.9" fill="rgb(60, 74, 166)" opacity="0.6"/>
    <circle cx="64.4" cy="108.7" r="2.0" fill="rgb(65, 73, 162)" opacity="0.6"/>
    <circle cx="78.5" cy="112.0" r="2.0" fill="rgb(65, 73, 162)" opacity="0.6"/>
    <circle cx="145.7" cy="99.2" r="2.0" fill="rgb(66, 72, 162)" opacity="0.6"/>
    <circle cx="50.2" cy="95.2" r="2.0" fill="rgb(70, 71, 158)" opacity="0.6"/>
    <circle cx="58.8" cy="101.8" r="2.0" fill="rgb(70, 71, 158)" opacity="0.6"/>
    <circle cx="65.8" cy="105.0" r="2.0" fill="rgb(70, 71, 158)" opacity="0.6"/>
    <circle cx="126.7" cy="107.4" r="2.0" fill="rgb(71, 71, 157)" opacity="0.6"/>
    <circle cx="42.5" cy="48.8" r="2.1" fill="rgb(75, 70, 154)" opacity="0.6"/>
    <circle cx="50.9" cy="89.2" r="2.1" fill="rgb(75, 70, 154)" opacity="0.6"/>
    <circle cx="56.1" cy="94.7" r="2.1" fill="rgb(75, 70, 154)" opacity="0.6"/>
    <circle cx="57.9" cy="96.4" r="2.1" fill="rgb(76, 69, 153)" opacity="0.6"/>
    <circle cx="106.8" cy="109.0" r="2.1" fill="rgb(76, 69, 153)" opacity="0.6"/>
    <circle cx="83.4" cy="19.3" r="2.1" fill="#cd9e37" opacity="0.6"/>
    <circle cx="49.0" cy="44.0" r="2.1" fill="rgb(80, 68, 150)" opacity="0.7"/>
    <circle cx="51.8" cy="82.7" r="2.1" fill="rgb(80, 68, 150)" opacity="0.7"/>
    <circle cx="55.2" cy="87.5" r="2.1" fill="rgb(81, 68, 150)" opacity="0.7"/>
    <circle cx="54.1" cy="87.5" r="2.7" fill="rgb(81, 68, 149)" opacity="0.7"/>
    <circle cx="89.4" cy="105.1" r="2.1" fill="rgb(81, 68, 149)" opacity="0.7"/>
    <circle cx="126.5" cy="15.8" r="2.2" fill="rgb(84, 67, 147)" opacity="0.7"/>
    <circle cx="96.4" cy="16.8" r="2.2" fill="rgb(85, 67, 146)" opacity="0.7"/>
    <circle cx="56.5" cy="38.2" r="2.2" fill="rgb(85, 67, 146)" opacity="0.7"/>
    <circle cx="52.8" cy="75.6" r="2.2" fill="rgb(85, 67, 146)" opacity="0.7"/>
    <circle cx="55.6" cy="80.4" r="2.2" fill="rgb(86, 66, 145)" opacity="0.7"/>
    <circle cx="53.6" cy="78.8" r="2.2" fill="rgb(86, 66, 145)" opacity="0.7"/>
    <circle cx="76.5" cy="97.6" r="2.2" fill="rgb(87, 66, 145)" opacity="0.7"/>
    <circle cx="141.9" cy="19.0" r="2.2" fill="rgb(90, 65, 142)" opacity="0.7"/>
    <circle cx="110.7" cy="15.4" r="2.2" fill="rgb(90, 65, 142)" opacity="0.7"/>
    <circle cx="65.3" cy="31.8" r="2.2" fill="#cd9e37" opacity="0.7"/>
    <circle cx="54.0" cy="67.7" r="2.2" fill="rgb(91, 65, 141)" opacity="0.7"/>
    <circle cx="56.9" cy="73.0" r="2.2" fill="rgb(91, 65, 141)" opacity="0.7"/>
    <circle cx="55.3" cy="70.6" r="2.2" fill="rgb(92, 65, 141)" opacity="0.7"/>
    <circle cx="68.5" cy="88.1" r="2.3" fill="rgb(92, 65, 140)" opacity="0.7"/>
    <circle cx="155.0" cy="23.9" r="2.3" fill="rgb(95, 64, 138)" opacity="0.7"/>
    <circle cx="125.6" cy="15.6" r="2.3" fill="rgb(95, 64, 138)" opacity="0.7"/>
    <circle cx="76.1" cy="25.3" r="2.3" fill="rgb(96, 64, 138)" opacity="0.7"/>
    <circle cx="56.1" cy="58.9" r="2.9" fill="rgb(96, 63, 137)" opacity="0.7"/>
    <circle cx="58.8" cy="65.3" r="2.3" fill="rgb(96, 63, 137)" opacity="0.7"/>
    <circle cx="58.6" cy="62.8" r="2.3" fill="rgb(97, 63, 137)" opacity="0.7"/>
    <circle cx="64.9" cy="78.0" r="2.3" fill="rgb(97, 63, 136)" opacity="0.7"/>
    <circle cx="165.1" cy="29.8" r="2.3" fill="rgb(100, 62, 134)" opacity="0.7"/>
    <circle cx="140.0" cy="17.8" r="2.3" fill="rgb(100, 62, 134)" opacity="0.7"/>
    <circle cx="89.1" cy="19.7" r="2.4" fill="rgb(101, 62, 133)" opacity="0.7"/>
    <circle cx="60.0" cy="49.3" r="2.4" fill="#cd9e37" opacity="0.7"/>
    <circle cx="61.5" cy="57.1" r="2.4" fill="rgb(102, 62, 133)" opacity="0.7"/>
    <circle cx="62.9" cy="55.3" r="2.4" fill="rgb(102, 62, 132)" opacity="0.7"/>
    <circle cx="64.9" cy="68.0" r="2.4" fill="rgb(102, 61, 132)" opacity="0.7"/>
    <circle cx="171.9" cy="35.6" r="2.4" fill="rgb(105, 61, 130)" opacity="0.7"/>
    <circle cx="152.6" cy="21.8" r="2.4" fill="rgb(106, 61, 129)" opacity="0.7"/>
    <circle cx="103.8" cy="15.7" r="2.4" fill="rgb(106, 60, 129)" opacity="0.7"/>
    <circle cx="66.4" cy="39.3" r="2.4" fill="rgb(107, 60, 129)" opacity="0.7"/>
    <circle cx="65.8" cy="48.4" r="2.4" fill="rgb(107, 60, 128)" opacity="0.7"/>
    <circle cx="68.3" cy="47.9" r="2.4" fill="rgb(107, 60, 128)" opacity="0.7"/>
    <circle cx="67.7" cy="58.4" r="2.4" fill="rgb(108, 60, 128)" opacity="0.7"/>
    <circle cx="175.8" cy="40.8" r="2.5" fill="rgb(111, 59, 126)" opacity="0.7"/>
    <circle cx="162.6" cy="26.9" r="3.1" fill="rgb(111, 59, 125)" opacity="0.7"/>
    <circle cx="119.4" cy="14.0" r="2.5" fill="rgb(111, 59, 125)" opacity="0.7"/>
    <circle cx="76.2" cy="29.8" r="2.5" fill="rgb(112, 59, 125)" opacity="0.7"/>
    <circle cx="72.1" cy="39.4" r="2.5" fill="#cd9e37" opacity="0.7"/>
    <circle cx="75.0" cy="40.5" r="2.5" fill="rgb(113, 58, 124)" opacity="0.7"/>
    <circle cx="72.7" cy="49.5" r="2.5" fill="rgb(113, 58, 124)" opacity="0.7"/>
    <circle cx="177.4" cy="44.8" r="2.5" fill="rgb(116, 57, 121)" opacity="0.8"/>
    <circle cx="169.5" cy="32.3" r="2.5" fill="rgb(116, 57, 121)" opacity="0.8"/>
    <circle cx="134.4" cy="14.8" r="2.5" fill="rgb(117, 57, 121)" opacity="0.8"/>
    <circle cx="89.4" cy="21.8" r="2.5" fill="rgb(117, 57, 120)" opacity="0.8"/>
    <circle cx="81.3" cy="30.6" r="2.5" fill="rgb(117, 57, 120)" opacity="0.8"/>
    <circle cx="83.3" cy="33.3" r="2.5" fill="rgb(118, 57, 120)" opacity="0.8"/>
    <circle cx="79.7" cy="41.1" r="2.5" fill="rgb(118, 57, 119)" opacity="0.8"/>
    <circle cx="177.4" cy="47.6" r="2.6" fill="rgb(121, 56, 117)" opacity="0.8"/>
    <circle cx="173.6" cy="37.4" r="2.6" fill="rgb(121, 56, 117)" opacity="0.8"/>
    <circle cx="147.4" cy="17.9" r="2.6" fill="rgb(122, 56, 116)" opacity="0.8"/>
    <circle cx="105.0" cy="16.4" r="2.6" fill="rgb(122, 56, 116)" opacity="0.8"/>
    <circle cx="93.6" cy="23.2" r="2.6" fill="rgb(123, 55, 116)" opacity="0.8"/>
    <circle cx="93.7" cy="26.8" r="2.6" fill="#cd9e37" opacity="0.8"/>
    <circle cx="88.8" cy="33.5" r="3.2" fill="rgb(123, 55, 115)" opacity="0.8"/>
    <circle cx="176.4" cy="49.4" r="2.6" fill="rgb(126, 54, 113)" opacity="0.8"/>
    <circle cx="175.3" cy="41.7" r="2.6" fill="rgb(127, 54, 113)" opacity="0.8"/>
    <circle cx="157.7" cy="22.4" r="2.6" fill="rgb(127, 54, 112)" opacity="0.8"/>
    <circle cx="121.5" cy="14.3" r="2.6" fill="rgb(128, 54, 112)" opacity="0.8"/>
    <circle cx="108.4" cy="18.0" r="2.6" fill="rgb(128, 54, 112)" opacity="0.8"/>
    <circle cx="106.4" cy="21.5" r="2.7" fill="rgb(128, 54, 111)" opacity="0.8"/>
    <circle cx="100.2" cy="27.0" r="2.7" fill="rgb(129, 54, 111)" opacity="0.8"/>
    <circle cx="175.1" cy="50.4" r="2.7" fill="rgb(132, 53, 109)" opacity="0.8"/>
    <circle cx="175.4" cy="44.9" r="2.7" fill="rgb(132, 53, 108)" opacity="0.8"/>
    <circle cx="164.8" cy="27.6" r="2.7" fill="rgb(132, 53, 108)" opacity="0.8"/>
    <circle cx="137.1" cy="15.4" r="2.7" fill="rgb(133, 52, 108)" opacity="0.8"/>
    <circle cx="124.5" cy="15.8" r="2.7" fill="rgb(133, 52, 107)" opacity="0.8"/>
    <circle cx="120.8" cy="18.4" r="2.7" fill="rgb(134, 52, 107)" opacity="0.8"/>
    <circle cx="113.9" cy="22.3" r="2.7" fill="#cd9e37" opacity="0.8"/>
    <circle cx="173.8" cy="50.9" r="2.7" fill="rgb(137, 51, 105)" opacity="0.8"/>
    <circle cx="174.6" cy="47.3" r="2.7" fill="rgb(137, 51, 104)" opacity="0.8"/>
    <circle cx="169.0" cy="32.7" r="2.8" fill="rgb(138, 51, 104)" opacity="0.8"/>
    <circle cx="150.1" cy="19.2" r="2.8" fill="rgb(138, 51, 104)" opacity="0.8"/>
    <circle cx="140.0" cy="17.0" r="3.4" fill="rgb(138, 51, 103)" opacity="0.8"/>
    <circle cx="135.9" cy="18.2" r="2.8" fill="rgb(139, 51, 103)" opacity="0.8"/>
    <circle cx="129.2" cy="20.2" r="2.8" fill="rgb(139, 51, 103)" opacity="0.8"/>
    <circle cx="172.9" cy="51.4" r="2.8" fill="rgb(142, 50, 100)" opacity="0.8"/>
    <circle cx="173.4" cy="48.9" r="2.8" fill="rgb(143, 50, 100)" opacity="0.8"/>
    <circle cx="171.1" cy="37.2" r="2.8" fill="rgb(143, 49, 100)" opacity="0.8"/>
    <circle cx="159.7" cy="24.5" r="2.8" fill="rgb(143, 49, 99)" opacity="0.8"/>
    <circle cx="153.1" cy="20.9" r="2.8" fill="rgb(144, 49, 99)" opacity="0.8"/>
    <circle cx="149.8" cy="20.8" r="2.8" fill="rgb(144, 49, 99)" opacity="0.8"/>
    <circle cx="144.6" cy="21.5" r="2.8" fill="rgb(144, 49, 98)" opacity="0.8"/>
    <circle cx="172.5" cy="52.0" r="2.9" fill="#cd9e37" opacity="0.8"/>
    <circle cx="172.3" cy="50.0" r="2.9" fill="rgb(148, 48, 96)" opacity="0.8"/>
    <circle cx="171.6" cy="41.1" r="2.9" fill="rgb(148, 48, 95)" opacity="0.8"/>
    <circle cx="165.9" cy="30.4" r="2.9" fill="rgb(149, 48, 95)" opacity="0.8"/>
    <circle cx="162.7" cy="26.7" r="2.9" fill="rgb(149, 48, 95)" opacity="0.8"/>
    <circle cx="161.0" cy="25.9" r="2.9" fill="rgb(149, 48, 95)" opacity="0.9"/>
    <circle cx="158.1" cy="26.0" r="2.9" fill="rgb(150, 47, 94)" opacity="0.9"/>
    <circle cx="172.7" cy="52.9" r="2.9" fill="rgb(153, 47, 92)" opacity="0.9"/>
    <circle cx="171.6" cy="51.0" r="2.9" fill="rgb(153, 46, 92)" opacity="0.9"/>
    <circle cx="171.4" cy="44.2" r="3.5" fill="rgb(153, 46, 91)" opacity="0.9"/>
    <circle cx="169.2" cy="36.0" r="2.9" fill="rgb(154, 46, 91)" opacity="0.9"/>
    <circle cx="168.6" cy="33.2" r="2.9" fill="rgb(154, 46, 91)" opacity="0.9"/>
    <circle cx="168.5" cy="32.5" r="2.9" fill="rgb(155, 46, 90)" opacity="0.9"/>
    <circle cx="167.8" cy="33.0" r="2.9" fill="rgb(155, 46, 90)" opacity="0.9"/>
    <circle cx="173.3" cy="54.1" r="3.0" fill="rgb(158, 45, 88)" opacity="0.9"/>
    <circle cx="171.3" cy="52.0" r="3.0" fill="#cd9e37" opacity="0.9"/>
    <circle cx="170.9" cy="46.7" r="3.0" fill="rgb(159, 45, 87)" opacity="0.9"/>
    <circle cx="170.4" cy="41.1" r="3.0" fill="rgb(159, 45, 87)" opacity="0.9"/>
    <circle cx="171.0" cy="39.4" r="3.0" fill="rgb(159, 45, 86)" opacity="0.9"/>
    <circle cx="172.0" cy="39.2" r="3.0" fill="rgb(160, 44, 86)" opacity="0.9"/>
    <circle cx="174.0" cy="55.9" r="3.0" fill="rgb(163, 43, 83)" opacity="0.9"/>
    <circle cx="171.5" cy="53.3" r="3.0" fill="rgb(164, 43, 83)" opacity="0.9"/>
    <circle cx="170.6" cy="49.0" r="3.0" fill="rgb(164, 43, 83)" opacity="0.9"/>
    <circle cx="170.3" cy="45.3" r="3.0" fill="rgb(164, 43, 83)" opacity="0.9"/>
    <circle cx="171.0" cy="44.7" r="3.0" fill="rgb(165, 43, 82)" opacity="0.9"/>
    <circle cx="174.4" cy="58.0" r="3.1" fill="rgb(168, 42, 79)" opacity="0.9"/>
    <circle cx="171.9" cy="54.8" r="3.1" fill="rgb(169, 42, 79)" opacity="0.9"/>
    <circle cx="170.4" cy="51.1" r="3.1" fill="rgb(169, 42, 79)" opacity="0.9"/>
    <circle cx="169.4" cy="48.9" r="3.7" fill="rgb(170, 42, 78)" opacity="0.9"/>
    <circle cx="174.2" cy="60.2" r="3.1" fill="rgb(174, 40, 75)" opacity="0.9"/>
    <circle cx="172.2" cy="56.7" r="3.2" fill="#cd9e37" opacity="0.9"/>
    <circle cx="170.1" cy="53.4" r="3.2" fill="rgb(174, 40, 74)" opacity="0.9"/>
    <circle cx="173.1" cy="62.3" r="3.2" fill="rgb(179, 39, 71)" opacity="0.9"/>
    <circle cx="171.9" cy="58.7" r="3.2" fill="rgb(179, 39, 71)" opacity="0.9"/>
    <circle cx="171.1" cy="63.8" r="3.3" fill="rgb(184, 37, 67)" opacity="0.9"/>
  </g>
</svg>
