<svg xmlns="http://www.w3.org/2000/svg" viewBox="0 0 220 130" role="img" aria-labelledby="scalable-sketch-title scalable-sketch-desc">
  <title id="scalable-sketch-title">Scalable AI sketching flow</title>
  <desc id="scalable-sketch-desc">High-dimensional particles compressed through randomized sketching into a compact learning representation.</desc>
  <defs>
    <radialGradient id="sketch-wash" cx="48%" cy="44%" r="75%">
      <stop offset="0" stop-color="#eaf1ff" stop-opacity="0.86"/>
      <stop offset="1" stop-color="#ffffff" stop-opacity="0"/>
    </radialGradient>
    <linearGradient id="sketch-path" x1="112" y1="92" x2="201" y2="38" gradientUnits="userSpaceOnUse">
      <stop offset="0" stop-color="#b85c30"/>
      <stop offset="0.5" stop-color="#1456c6"/>
      <stop offset="1" stop-color="#cd9e37"/>
    </linearGradient>
  </defs>
  <rect width="220" height="130" rx="12" fill="url(#sketch-wash)"/>
  <g><line x1="60.8" y1="48.5" x2="131.4" y2="57.5" stroke="#cd9e37" stroke-width="0.85" opacity="0.15" stroke-linecap="round"/>
    <line x1="65.3" y1="76.2" x2="142.4" y2="63.4" stroke="#cd9e37" stroke-width="0.85" opacity="0.15" stroke-linecap="round"/>
    <line x1="59.6" y1="49.1" x2="137.8" y2="48.1" stroke="#cd9e37" stroke-width="0.85" opacity="0.15" stroke-linecap="round"/>
    <line x1="35.8" y1="35.3" x2="113.8" y2="37.5" stroke="#cd9e37" stroke-width="0.85" opacity="0.15" stroke-linecap="round"/>
    <line x1="53.2" y1="81.3" x2="117.9" y2="62.3" stroke="#cd9e37" stroke-width="0.85" opacity="0.15" stroke-linecap="round"/>
    <line x1="66.5" y1="38.4" x2="129.0" y2="42.7" stroke="#cd9e37" stroke-width="0.85" opacity="0.15" stroke-linecap="round"/>
    <line x1="60.7" y1="97.5" x2="134.7" y2="60.3" stroke="#cd9e37" stroke-width="0.85" opacity="0.15" stroke-linecap="round"/>
    <line x1="33.0" y1="70.9" x2="122.7" y2="63.9" stroke="#cd9e37" stroke-width="0.85" opacity="0.15" stroke-linecap="round"/>
    <line x1="24.0" y1="39.7" x2="112.7" y2="34.1" stroke="#cd9e37" stroke-width="0.85" opacity="0.15" stroke-linecap="round"/>
    <line x1="89.0" y1="45.2" x2="144.6" y2="43.6" stroke="#cd9e37" stroke-width="0.85" opacity="0.15" stroke-linecap="round"/>
    <line x1="51.6" y1="31.4" x2="116.6" y2="40.6" stroke="#cd9e37" stroke-width="0.85" opacity="0.15" stroke-linecap="round"/>
    <line x1="88.8" y1="88.6" x2="146.1" y2="57.0" stroke="#cd9e37" stroke-width="0.85" opacity="0.15" stroke-linecap="round"/>
    <line x1="74.7" y1="93.6" x2="146.4" y2="70.6" stroke="#cd9e37" stroke-width="0.85" opacity="0.15" stroke-linecap="round"/>
    <line x1="53.9" y1="47.4" x2="135.6" y2="52.4" stroke="#cd9e37" stroke-width="0.85" opacity="0.15" stroke-linecap="round"/>
    <line x1="76.5" y1="28.7" x2="142.9" y2="34.2" stroke="#cd9e37" stroke-width="0.85" opacity="0.15" stroke-linecap="round"/>
    <line x1="33.4" y1="29.2" x2="106.7" y2="39.1" stroke="#cd9e37" stroke-width="0.85" opacity="0.15" stroke-linecap="round"/>
    <line x1="31.6" y1="41.8" x2="104.9" y2="54.6" stroke="#cd9e37" stroke-width="0.85" opacity="0.15" stroke-linecap="round"/>
    <line x1="50.7" y1="52.2" x2="125.2" y2="49.7" stroke="#cd9e37" stroke-width="0.85" opacity="0.15" stroke-linecap="round"/>
    <line x1="38.8" y1="24.4" x2="125.6" y2="43.3" stroke="#cd9e37" stroke-width="0.85" opacity="0.15" stroke-linecap="round"/>
    <line x1="35.2" y1="34.6" x2="122.2" y2="31.5" stroke="#cd9e37" stroke-width="0.85" opacity="0.15" stroke-linecap="round"/>
    <line x1="25.1" y1="25.6" x2="106.8" y2="48.0" stroke="#cd9e37" stroke-width="0.85" opacity="0.15" stroke-linecap="round"/>
    <line x1="63.4" y1="29.3" x2="124.4" y2="39.5" stroke="#cd9e37" stroke-width="0.85" opacity="0.15" stroke-linecap="round"/>
    <line x1="45.7" y1="52.9" x2="115.9" y2="51.0" stroke="#cd9e37" stroke-width="0.85" opacity="0.15" stroke-linecap="round"/>
    <line x1="35.4" y1="58.4" x2="118.8" y2="44.9" stroke="#cd9e37" stroke-width="0.85" opacity="0.15" stroke-linecap="round"/></g>
  <g><line x1="111.0" y1="19.0" x2="190.0" y2="19.0" stroke="#b85c30" stroke-width="1" opacity="0.18" stroke-linecap="round"/>
    <line x1="111.0" y1="26.6" x2="190.0" y2="35.2" stroke="#1456c6" stroke-width="1" opacity="0.18" stroke-linecap="round"/>
    <line x1="111.0" y1="34.2" x2="190.0" y2="46.2" stroke="#b85c30" stroke-width="1" opacity="0.18" stroke-linecap="round"/>
    <line x1="111.0" y1="41.8" x2="190.0" y2="49.9" stroke="#1456c6" stroke-width="1" opacity="0.18" stroke-linecap="round"/>
    <line x1="111.0" y1="49.4" x2="190.0" y2="48.7" stroke="#b85c30" stroke-width="1" opacity="0.18" stroke-linecap="round"/>
    <line x1="111.0" y1="57.0" x2="190.0" y2="47.9" stroke="#1456c6" stroke-width="1" opacity="0.18" stroke-linecap="round"/>
    <line x1="111.0" y1="64.6" x2="190.0" y2="52.6" stroke="#b85c30" stroke-width="1" opacity="0.18" stroke-linecap="round"/>
    <line x1="111.0" y1="72.2" x2="190.0" y2="64.6" stroke="#1456c6" stroke-width="1" opacity="0.18" stroke-linecap="round"/>
    <line x1="111.0" y1="79.8" x2="190.0" y2="81.2" stroke="#b85c30" stroke-width="1" opacity="0.18" stroke-linecap="round"/>
    <line x1="111.0" y1="87.4" x2="190.0" y2="96.9" stroke="#1456c6" stroke-width="1" opacity="0.18" stroke-linecap="round"/>
    <line x1="111.0" y1="95.0" x2="190.0" y2="106.9" stroke="#b85c30" stroke-width="1" opacity="0.18" stroke-linecap="round"/>
    <line x1="111.0" y1="102.6" x2="190.0" y2="109.6" stroke="#1456c6" stroke-width="1" opacity="0.18" stroke-linecap="round"/>
    <line x1="111.0" y1="110.2" x2="190.0" y2="108.1" stroke="#b85c30" stroke-width="1" opacity="0.18" stroke-linecap="round"/>
    <line x1="113.0" y1="17.0" x2="130.0" y2="111.0" stroke="#141f34" stroke-width="1" opacity="0.09" stroke-linecap="round"/>
    <line x1="122.4" y1="17.0" x2="131.6" y2="111.0" stroke="#141f34" stroke-width="1" opacity="0.09" stroke-linecap="round"/>
    <line x1="131.8" y1="17.0" x2="124.7" y2="111.0" stroke="#141f34" stroke-width="1" opacity="0.09" stroke-linecap="round"/>
    <line x1="141.2" y1="17.0" x2="124.4" y2="111.0" stroke="#141f34" stroke-width="1" opacity="0.09" stroke-linecap="round"/>
    <line x1="150.6" y1="17.0" x2="139.5" y2="111.0" stroke="#141f34" stroke-width="1" opacity="0.09" stroke-linecap="round"/>
    <line x1="160.0" y1="17.0" x2="164.8" y2="111.0" stroke="#141f34" stroke-width="1" opacity="0.09" stroke-linecap="round"/>
    <line x1="169.4" y1="17.0" x2="185.7" y2="111.0" stroke="#141f34" stroke-width="1" opacity="0.09" stroke-linecap="round"/>
    <line x1="178.8" y1="17.0" x2="191.6" y2="111.0" stroke="#141f34" stroke-width="1" opacity="0.09" stroke-linecap="round"/>
    <line x1="188.2" y1="17.0" x2="185.7" y2="111.0" stroke="#141f34" stroke-width="1" opacity="0.09" stroke-linecap="round"/></g>
  <path d="M116.0 89.0 L116.9 89.4 L117.7 89.7 L118.6 89.9 L119.5 89.8 L120.3 89.5 L121.2 88.8 L122.0 87.7 L122.9 86.3 L123.8 84.5 L124.6 82.4 L125.5 80.0 L126.4 77.4 L127.2 74.7 L128.1 72.0 L128.9 69.3 L129.8 66.8 L130.7 64.5 L131.5 62.4 L132.4 60.7 L133.3 59.4 L134.1 58.5 L135.0 57.9 L135.9 57.7 L136.7 57.9 L137.6 58.3 L138.4 58.9 L139.3 59.6 L140.2 60.4 L141.0 61.1 L141.9 61.7 L142.8 62.0 L143.6 62.2 L144.5 62.0 L145.3 61.4 L146.2 60.5 L147.1 59.3 L147.9 57.8 L148.8 56.1 L149.7 54.1 L150.5 52.0 L151.4 49.9 L152.3 47.9 L153.1 46.0 L154.0 44.3 L154.8 42.9 L155.7 41.9 L156.6 41.2 L157.4 40.9 L158.3 41.1 L159.2 41.6 L160.0 42.5 L160.9 43.6 L161.7 45.0 L162.6 46.6 L163.5 48.2 L164.3 49.7 L165.2 51.2 L166.1 52.4 L166.9 53.5 L167.8 54.2 L168.7 54.6 L169.5 54.6 L170.4 54.3 L171.2 53.8 L172.1 52.9 L173.0 51.9 L173.8 50.7 L174.7 49.5 L175.6 48.3 L176.4 47.3 L177.3 46.5 L178.1 46.0 L179.0 45.7 L179.9 45.9 L180.7 46.5 L181.6 47.5 L182.5 48.8 L183.3 50.5 L184.2 52.5 L185.1 54.7 L185.9 57.1 L186.8 59.5 L187.6 61.9 L188.5 64.2 L189.4 66.3 L190.2 68.2 L191.1 69.7 L192.0 70.9 L192.8 71.8 L193.7 72.3 L194.5 72.5 L195.4 72.4 L196.3 72.1 L197.1 71.6 L198.0 71.1" fill="none" stroke="url(#sketch-path)" stroke-width="1.45" stroke-linecap="round" opacity="0.38"/>
  <g style="filter: drop-shadow(0 2px 3px rgba(20, 31, 52, 0.2));">
    <circle cx="60.8" cy="48.5" r="2.4" fill="#d71c2a" opacity="0.8"/>
    <circle cx="131.4" cy="57.5" r="3.1" fill="#b85c30" opacity="0.9"/>
    <circle cx="48.7" cy="84.4" r="1.8" fill="#cd9e37" opacity="0.6"/>
    <circle cx="53.9" cy="67.6" r="1.6" fill="#cd9e37" opacity="0.5"/>
    <circle cx="133.1" cy="48.9" r="2.1" fill="#1456c6" opacity="0.6"/>
    <circle cx="65.3" cy="76.2" r="2.1" fill="#cd9e37" opacity="0.7"/>
    <circle cx="34.9" cy="56.4" r="2.2" fill="#cd9e37" opacity="0.7"/>
    <circle cx="123.9" cy="57.6" r="2.9" fill="#1456c6" opacity="0.9"/>
    <circle cx="45.7" cy="33.1" r="1.7" fill="#1456c6" opacity="0.5"/>
    <circle cx="59.6" cy="49.1" r="1.9" fill="#cd9e37" opacity="0.6"/>
    <circle cx="137.8" cy="48.1" r="2.5" fill="#1456c6" opacity="0.7"/>
    <circle cx="88.1" cy="62.6" r="1.5" fill="#cd9e37" opacity="0.5"/>
    <circle cx="78.2" cy="22.0" r="1.5" fill="#cd9e37" opacity="0.5"/>
    <circle cx="144.1" cy="27.6" r="2.0" fill="#b85c30" opacity="0.6"/>
    <circle cx="35.8" cy="35.3" r="1.7" fill="#d71c2a" opacity="0.5"/>
    <circle cx="89.7" cy="56.5" r="1.5" fill="#1456c6" opacity="0.5"/>
    <circle cx="145.0" cy="42.0" r="2.0" fill="#1456c6" opacity="0.6"/>
    <circle cx="77.9" cy="102.8" r="2.2" fill="#cd9e37" opacity="0.7"/>
    <circle cx="53.2" cy="81.3" r="2.0" fill="#cd9e37" opacity="0.6"/>
    <circle cx="117.9" cy="62.3" r="2.5" fill="#1456c6" opacity="0.8"/>
    <circle cx="85.2" cy="45.4" r="1.8" fill="#cd9e37" opacity="0.6"/>
    <circle cx="52.7" cy="56.3" r="2.3" fill="#cd9e37" opacity="0.8"/>
    <circle cx="118.2" cy="59.3" r="3.0" fill="#1456c6" opacity="0.9"/>
    <circle cx="66.5" cy="38.4" r="1.9" fill="#1456c6" opacity="0.6"/>
    <circle cx="45.3" cy="69.2" r="1.6" fill="#cd9e37" opacity="0.5"/>
    <circle cx="118.4" cy="49.8" r="2.1" fill="#b85c30" opacity="0.6"/>
    <circle cx="74.2" cy="102.5" r="1.7" fill="#cd9e37" opacity="0.6"/>
    <circle cx="60.7" cy="97.5" r="1.5" fill="#d71c2a" opacity="0.5"/>
    <circle cx="134.7" cy="60.3" r="2.0" fill="#1456c6" opacity="0.6"/>
    <circle cx="67.6" cy="60.6" r="1.5" fill="#cd9e37" opacity="0.5"/>
    <circle cx="51.7" cy="85.0" r="1.4" fill="#1456c6" opacity="0.5"/>
    <circle cx="133.7" cy="53.0" r="1.9" fill="#1456c6" opacity="0.6"/>
    <circle cx="33.0" cy="70.9" r="2.2" fill="#cd9e37" opacity="0.7"/>
    <circle cx="45.8" cy="98.6" r="1.4" fill="#cd9e37" opacity="0.4"/>
    <circle cx="130.5" cy="57.1" r="1.8" fill="#1456c6" opacity="0.6"/>
    <circle cx="56.7" cy="59.2" r="1.4" fill="#cd9e37" opacity="0.5"/>
    <circle cx="24.0" cy="39.7" r="1.4" fill="#cd9e37" opacity="0.5"/>
    <circle cx="112.7" cy="34.1" r="1.9" fill="#b85c30" opacity="0.6"/>
    <circle cx="34.7" cy="79.0" r="2.0" fill="#1456c6" opacity="0.7"/>
    <circle cx="51.7" cy="87.3" r="1.6" fill="#cd9e37" opacity="0.5"/>
    <circle cx="123.9" cy="57.6" r="2.1" fill="#1456c6" opacity="0.6"/>
    <circle cx="89.0" cy="45.2" r="1.8" fill="#d71c2a" opacity="0.6"/>
    <circle cx="71.7" cy="64.1" r="1.7" fill="#cd9e37" opacity="0.6"/>
    <circle cx="131.1" cy="50.0" r="2.2" fill="#1456c6" opacity="0.7"/>
    <circle cx="42.9" cy="33.7" r="1.8" fill="#cd9e37" opacity="0.6"/>
    <circle cx="51.6" cy="31.4" r="1.9" fill="#1456c6" opacity="0.6"/>
    <circle cx="116.6" cy="40.6" r="2.5" fill="#1456c6" opacity="0.7"/>
    <circle cx="37.2" cy="46.8" r="1.5" fill="#cd9e37" opacity="0.5"/>
    <circle cx="62.0" cy="31.5" r="1.4" fill="#cd9e37" opacity="0.5"/>
    <circle cx="126.2" cy="29.6" r="1.8" fill="#b85c30" opacity="0.6"/>
    <circle cx="88.8" cy="88.6" r="1.6" fill="#cd9e37" opacity="0.5"/>
    <circle cx="84.8" cy="67.4" r="2.0" fill="#cd9e37" opacity="0.7"/>
    <circle cx="146.8" cy="57.5" r="2.6" fill="#1456c6" opacity="0.8"/>
    <circle cx="55.0" cy="55.2" r="1.5" fill="#1456c6" opacity="0.5"/>
    <circle cx="74.7" cy="93.6" r="2.1" fill="#d71c2a" opacity="0.7"/>
    <circle cx="146.4" cy="70.6" r="2.7" fill="#1456c6" opacity="0.8"/>
    <circle cx="63.4" cy="60.9" r="1.6" fill="#cd9e37" opacity="0.5"/>
    <circle cx="85.7" cy="40.4" r="1.4" fill="#cd9e37" opacity="0.5"/>
    <circle cx="156.2" cy="33.7" r="1.9" fill="#1456c6" opacity="0.6"/>
    <circle cx="53.9" cy="47.4" r="2.2" fill="#cd9e37" opacity="0.7"/>
    <circle cx="38.2" cy="36.3" r="1.8" fill="#1456c6" opacity="0.6"/>
    <circle cx="124.1" cy="40.9" r="2.4" fill="#b85c30" opacity="0.7"/>
    <circle cx="69.9" cy="35.9" r="1.4" fill="#cd9e37" opacity="0.5"/>
    <circle cx="76.5" cy="28.7" r="1.7" fill="#cd9e37" opacity="0.5"/>
    <circle cx="142.9" cy="34.2" r="2.2" fill="#1456c6" opacity="0.7"/>
    <circle cx="42.7" cy="88.5" r="1.5" fill="#cd9e37" opacity="0.5"/>
    <circle cx="57.9" cy="23.4" r="1.8" fill="#cd9e37" opacity="0.6"/>
    <circle cx="124.7" cy="34.2" r="2.3" fill="#1456c6" opacity="0.7"/>
    <circle cx="33.4" cy="29.2" r="1.9" fill="#d71c2a" opacity="0.6"/>
    <circle cx="31.5" cy="28.4" r="1.7" fill="#cd9e37" opacity="0.6"/>
    <circle cx="104.1" cy="35.9" r="2.3" fill="#1456c6" opacity="0.7"/>
    <circle cx="43.9" cy="71.0" r="1.8" fill="#cd9e37" opacity="0.6"/>
    <circle cx="31.6" cy="41.8" r="2.4" fill="#cd9e37" opacity="0.8"/>
    <circle cx="104.9" cy="54.6" r="3.1" fill="#b85c30" opacity="0.9"/>
    <circle cx="77.6" cy="53.8" r="2.2" fill="#cd9e37" opacity="0.7"/>
    <circle cx="60.6" cy="48.9" r="1.5" fill="#1456c6" opacity="0.5"/>
    <circle cx="128.2" cy="39.4" r="2.0" fill="#1456c6" opacity="0.6"/>
    <circle cx="50.7" cy="52.2" r="1.9" fill="#cd9e37" opacity="0.6"/>
    <circle cx="81.6" cy="63.6" r="2.2" fill="#cd9e37" opacity="0.7"/>
    <circle cx="148.1" cy="59.2" r="2.8" fill="#1456c6" opacity="0.8"/>
    <circle cx="55.3" cy="36.2" r="2.2" fill="#cd9e37" opacity="0.7"/>
    <circle cx="38.8" cy="24.4" r="2.2" fill="#d71c2a" opacity="0.7"/>
    <circle cx="125.6" cy="43.3" r="2.8" fill="#1456c6" opacity="0.8"/>
    <circle cx="44.4" cy="37.6" r="2.4" fill="#1456c6" opacity="0.8"/>
    <circle cx="35.5" cy="70.8" r="1.5" fill="#cd9e37" opacity="0.5"/>
    <circle cx="123.9" cy="48.6" r="2.0" fill="#b85c30" opacity="0.6"/>
    <circle cx="35.2" cy="34.6" r="1.4" fill="#cd9e37" opacity="0.5"/>
    <circle cx="29.4" cy="78.8" r="1.9" fill="#cd9e37" opacity="0.6"/>
    <circle cx="116.0" cy="59.8" r="2.5" fill="#1456c6" opacity="0.7"/>
    <circle cx="77.5" cy="37.1" r="1.6" fill="#cd9e37" opacity="0.5"/>
    <circle cx="25.1" cy="25.6" r="2.4" fill="#1456c6" opacity="0.8"/>
    <circle cx="106.8" cy="48.0" r="3.1" fill="#1456c6" opacity="0.9"/>
    <circle cx="29.8" cy="82.2" r="1.4" fill="#cd9e37" opacity="0.5"/>
    <circle cx="29.1" cy="57.4" r="1.5" fill="#cd9e37" opacity="0.5"/>
    <circle cx="103.9" cy="43.5" r="2.0" fill="#1456c6" opacity="0.6"/>
    <circle cx="63.4" cy="29.3" r="1.9" fill="#d71c2a" opacity="0.6"/>
    <circle cx="39.9" cy="44.7" r="2.3" fill="#cd9e37" opacity="0.8"/>
    <circle cx="109.2" cy="55.0" r="3.0" fill="#b85c30" opacity="0.9"/>
    <circle cx="49.6" cy="29.7" r="1.7" fill="#1456c6" opacity="0.6"/>
    <circle cx="45.7" cy="52.9" r="2.0" fill="#cd9e37" opacity="0.6"/>
    <circle cx="115.9" cy="51.0" r="2.6" fill="#1456c6" opacity="0.8"/>
    <circle cx="48.3" cy="61.8" r="2.1" fill="#cd9e37" opacity="0.7"/>
    <circle cx="57.5" cy="51.4" r="2.4" fill="#cd9e37" opacity="0.8"/>
    <circle cx="129.6" cy="58.9" r="3.1" fill="#1456c6" opacity="0.9"/>
    <circle cx="35.4" cy="58.4" r="1.6" fill="#cd9e37" opacity="0.5"/>
    <circle cx="25.9" cy="98.1" r="2.1" fill="#1456c6" opacity="0.7"/>
    <circle cx="115.5" cy="71.3" r="2.7" fill="#1456c6" opacity="0.8"/>
    <circle cx="36.6" cy="88.9" r="1.4" fill="#cd9e37" opacity="0.5"/>
  </g>
</svg>
