<svg xmlns="http://www.w3.org/2000/svg" viewBox="0 0 1180 430" fill="none">
  <defs>
    <linearGradient id="flow" x1="80" y1="320" x2="1080" y2="90" gradientUnits="userSpaceOnUse">
      <stop offset="0" stop-color="#1456c6" stop-opacity="0.2"/>
      <stop offset="0.34" stop-color="#d71c2a" stop-opacity="0.22"/>
      <stop offset="0.68" stop-color="#cd9e37" stop-opacity="0.26"/>
      <stop offset="1" stop-color="#1456c6" stop-opacity="0.2"/>
    </linearGradient>
    <filter id="soft-shadow" x="-10%" y="-40%" width="120%" height="180%">
      <feDropShadow dx="0" dy="12" stdDeviation="10" flood-color="#141f34" flood-opacity="0.12"/>
    </filter>
  </defs>
  <path d="M43 284C137 91 282 79 392 214C508 356 606 372 705 218C805 62 969 53 1136 201"
        stroke="url(#flow)" stroke-width="3.5" stroke-linecap="round" filter="url(#soft-shadow)"/>
  <path d="M79 333C192 181 344 166 439 258C541 358 652 321 735 180C823 31 985 20 1115 128"
        stroke="#1456c6" stroke-width="1.4" stroke-linecap="round" stroke-dasharray="9 12" opacity="0.2"/>
  <g filter="url(#soft-shadow)">
    <circle cx="73" cy="282" r="4.5" fill="#1456c6" opacity="0.52"/>
    <circle cx="164" cy="161" r="5.2" fill="#d71c2a" opacity="0.46"/>
    <circle cx="260" cy="141" r="6.5" fill="#cd9e37" opacity="0.5"/>
    <circle cx="355" cy="194" r="4.8" fill="#1456c6" opacity="0.48"/>
    <circle cx="463" cy="317" r="7.4" fill="#b85c30" opacity="0.42"/>
    <circle cx="578" cy="342" r="5.8" fill="#1456c6" opacity="0.5"/>
    <circle cx="690" cy="235" r="6.8" fill="#d71c2a" opacity="0.44"/>
    <circle cx="789" cy="96" r="4.8" fill="#cd9e37" opacity="0.5"/>
    <circle cx="899" cy="57" r="7.7" fill="#1456c6" opacity="0.42"/>
    <circle cx="1016" cy="93" r="5.3" fill="#b85c30" opacity="0.43"/>
    <circle cx="1126" cy="197" r="7.8" fill="#d71c2a" opacity="0.4"/>
  </g>
  <g opacity="0.22">
    <circle cx="219" cy="247" r="2.4" fill="#1456c6"/>
    <circle cx="302" cy="107" r="2" fill="#d71c2a"/>
    <circle cx="522" cy="288" r="2.8" fill="#cd9e37"/>
    <circle cx="635" cy="306" r="2.2" fill="#1456c6"/>
    <circle cx="843" cy="151" r="2.7" fill="#d71c2a"/>
    <circle cx="956" cy="42" r="2.1" fill="#cd9e37"/>
  </g>
</svg>
